<?xml version="1.0" encoding="UTF-8"?>
<svg id="Layer_1" data-name="Layer 1" xmlns="http://www.w3.org/2000/svg" viewBox="0 0 140 140">
  <defs>
    <style>
      .cls-1 {
        fill: #fff;
      }

      .cls-2 {
        fill: none;
        stroke: #fff;
        stroke-miterlimit: 10;
        stroke-width: .87px;
      }
    </style>
  </defs>
  <g id="Globe">
    <g>
      <circle class="cls-2" cx="70.54" cy="71.06" r="62.09"/>
      <path class="cls-1" d="M26.12,114.95C7.85,89.61,9.8,54.81,31.01,31.81c6.72-7.42,15.04-13.32,24.11-17.37-8.85,4.52-16.89,10.58-23.4,18.01-13.14,14.74-19.51,35.33-16.05,54.86,1.65,9.72,5.51,19.03,11.04,27.23l-.6.41h0Z"/>
      <path class="cls-1" d="M106.97,120.88c21.81-26.64,19.93-61.93-2.42-87.56-6.94-8.08-15.42-14.83-24.82-19.98,19.27,9.37,35.2,26.59,41.25,47.36,6.51,21,.69,44.12-13.43,60.65,0,0-.58-.48-.58-.48h0Z"/>
      <path class="cls-1" d="M51.45,130.16c-.45.31-.38.1-.61-.07,0,0-.36-.35-.36-.35-.68-.72-1.49-1.38-2.1-2.15-18.91-21.92-15.15-62.65-4.72-87.82,4.05-9.76,9.63-19.23,17.76-26.12-7.7,7.3-12.87,16.76-16.75,26.52-9.22,23.78-12.87,57.41-.19,80.47,1.74,3.12,3.98,6.06,6.54,8.55,0,0,.34.35.34.35l.17.17c.07.05.11.12-.08.45h0Z"/>
      <path class="cls-1" d="M68,132.85c-5.28-39.61-4.02-79.98,1.3-119.51-2.5,29.8-4.1,59.72-2.85,89.62.44,9.95,1.12,19.9,2.31,29.8l-.76.1h0Z"/>
      <path class="cls-1" d="M83.02,131.45c17.49-18.23,16.89-52.26,11.86-75.51-3.45-15.41-9.36-30.78-20.16-42.6,7.66,7.46,12.93,17.08,16.7,27.01,8.74,23.82,11.41,54.68,1.09,78.37-2.23,4.86-5.19,9.45-9.06,13.18l-.43-.45h0Z"/>
      <path class="cls-1" d="M104.85,19.36c-4.19,4.56-10.51,6.28-16.33,7.69-11.84,2.49-24.26,2.5-36.03-.39-5.87-1.49-11.61-3.75-16.66-7.15,0,0,.53-.82.53-.82,5.04,3.16,10.65,5.34,16.43,6.77,11.6,2.7,23.83,2.93,35.51.54,5.63-1.34,11.82-2.86,15.95-7.15,0,0,.61.51.61.51h0Z"/>
      <path class="cls-1" d="M122.06,106.45c-7.71,4.82-16.85,6.11-25.64,7.44-22.05,2.55-44.91,2.58-66.39-3.58-4.27-1.33-8.46-3.08-12.2-5.62l.52-.75c3.66,2.4,7.82,3.99,12.02,5.29,23.35,6.57,55.31,6.49,78.96,1.19,4.26-1.07,8.58-2.34,12.22-4.71,0,0,.52.74.52.74h0Z"/>
      <path class="cls-1" d="M127.35,45.03c-23.35,16.69-74.57,18.8-99.61,4.81-4.33-2.4-8.35-5.49-11.48-9.41,0,0,.92-.72.92-.72,3.01,3.75,6.91,6.74,11.15,9.07,23.51,12.46,60.91,11.05,85.54,2.14,4.54-1.72,8.96-3.85,12.83-6.73,0,0,.65.84.65.84h0Z"/>
      <path class="cls-1" d="M132.73,77.21c-5.61,7.72-21.25,10.44-30.27,12.02-25.54,3.57-57.55,3.68-81.37-7.1-4.96-2.4-9.73-5.64-12.94-10.28l.66-.45c3.18,4.42,7.89,7.43,12.76,9.73,25.61,11.51,69.89,11.39,96.73,3.58,4.99-1.67,10.64-3.51,13.86-7.87,0,0,.57.36.57.36h0Z"/>
    </g>
    <g>
      <path class="cls-1" d="M61.02,13.47s.02,0,.04,0c.07,0,.13.01.2-.01.03,0,.06-.03.06-.07,0-.02-.02-.04-.03-.05-.02-.02-.04-.03-.07-.03-.01-.02-.02-.05-.04-.05-.04-.05-.1-.05-.16-.01-.02.01-.04.03-.05.06,0,.03,0,.05,0,.07.01.03.02.07.05.08Z"/>
      <path class="cls-1" d="M81.88,11.08c.19.11.19.44,0,.55.59-.13,1.26-.26,1.78.07.19.12.38.3.6.25.18-.04.34-.23.51-.16.13.05.17.24.3.28.13.05.27-.09.27-.23,0-.14-.12-.25-.26-.3-.13-.05-.27-.04-.41-.03-.09,0-.18.01-.27.02-.13,0-.27,0-.36-.08s-.05-.29.08-.28c-.42-.24-.95-.06-1.43-.04-.08,0-.18,0-.22-.08-.02-.05-.01-.11-.03-.15-.06-.17-.3-.09-.48-.1-.16-.01-.3-.12-.43-.22-.18-.13-.75-.24-.56.14.17.32.67.22.92.37Z"/>
      <path class="cls-1" d="M92.25,19.8c.14.1.33.09.5.07.17-.02.36-.06.49.06.12.11.11.33.25.41.12.07.27,0,.4-.03s.31-.04.36.09c.01.04.01.08,0,.13,0,.1-.02.22.03.31.05.09.18.15.26.08.04-.04.06-.1.09-.14.1-.11.27-.01.42.03.24.06.51-.07.63-.29.12-.22.08-.5-.05-.71-.16-.24-.45-.4-.52-.67-.01-.05-.02-.11-.05-.15-.03-.04-.08-.06-.13-.07-.27-.09-1.15-.32-1.38-.07-.1.1-.01.32-.07.44-.08.17-.26.27-.44.25-.13-.01-.24-.08-.35-.15-.17-.09-.4-.16-.54-.02-.12.13-.05.35.1.45Z"/>
      <path class="cls-1" d="M95.5,15.63c.52.3,1.16.35,1.71.59.37.16.7.41.96.73.14.16.26.35.44.46.14.08.29.11.45.15.38.1.73.26,1.09.42.54.24,1.08.48,1.61.72.28.13.57.25.82.44.28.21.51.49.77.73.36.35.78.65,1.23.88.53.27,1.16.48,1.42,1.01.09.19.13.4.23.58.12.21.32.36.55.43.06.02.12.03.18.01.13-.03.2-.19.19-.32s-.09-.25-.18-.36c-.84-1.08-2.18-1.63-3.16-2.58-.23-.22-.45-.47-.73-.62-.29-.16-.63-.2-.94-.3-.9-.28-1.58-1.01-2.41-1.46-.49-.27-1.04-.43-1.5-.75-.39-.26-.7-.61-1.07-.9-.63-.48-1.4-.78-2.16-.99-.41-.11-.59.03-.3.39.23.28.49.55.81.74Z"/>
      <path class="cls-1" d="M100.43,18.4c-.08-.03-.16-.07-.25-.05-.35.09.52.87.62.99.07.07.15.15.24.14.09,0,.16-.08.24-.11.17-.06.35.06.45.2.1.15.14.33.24.48.14.22.38.36.61.49.35.19.7.36,1.06.51.22.1.45.19.69.17.04,0,.07,0,.1-.04.05-.06,0-.15-.07-.21-1.16-1.07-2.5-1.94-3.94-2.58Z"/>
      <path class="cls-1" d="M56.36,15.93c.15,0,.2.23.29.37.13.2.27.05.4.02.13-.03.33.07.42-.25.08-.27.23-.33.44-.45.26-.16.6-.08.81-.34.03-.04.06-.08.06-.13,0-.05-.02-.09-.05-.13-.07-.11-.16-.14-.27-.18-.16-.06-.35-.04-.51-.12-.14-.07-.28-.2-.43-.25-.15-.05-.24.05-.39.03-.11-.01-.52-.18-.47-.11.1.16.03.29,0,.4-.04.19.02.23-.22.48-.1.11-.17.19-.25.31-.05.07-.1.23-.06.3.04.08.14.02.22.03Z"/>
      <path class="cls-1" d="M58.75,14.05s.02.02.03.02c.02,0,.04,0,.06-.02.11-.06.23.05.35.02,0,.06.03.12.07.16.05.04.12.04.18,0,.05-.05.08-.14.06-.22.05.03.09.05.15.05.05,0,.11-.03.14-.09.02-.05.02-.1.04-.15s.08-.08.1-.04c.01.02,0,.05,0,.08,0,.12.1.21.19.16.06-.03.1-.11.16-.14.04-.02.09-.02.13-.04.04-.02.08-.09.05-.13-.02-.04-.08-.05-.06-.1,0-.01.02-.02.03-.03.05-.03.12-.04.15-.1.03-.07-.02-.16-.07-.18s-.12,0-.18.01c-.11.02-.21.01-.31-.02-.08-.03-.17-.07-.24-.01-.12.1-.22.27-.35.33-.23.09-.46.19-.69.28-.01,0-.02,0-.03.02,0,.02,0,.04.02.05.02.03.04.05.06.08Z"/>
      <path class="cls-1" d="M59.56,14.78s.04,0,.06,0c.02-.01.03-.03.04-.05.03-.05.24-.28.14-.32-.02,0-.04,0-.06,0-.07.02-.13.06-.2.07-.03,0-.05,0-.08,0-.03,0-.06.02-.07.06-.02.04,0,.09,0,.12.03.07.09.12.15.13Z"/>
      <path class="cls-1" d="M60.45,14.48s-.02.06,0,.09c.1.19-.1.07-.18.16-.04.05-.06.12-.07.19,0,.05,0,.1.03.13.06.07.17.01.23.08.02.02.03.04.04.06.02.01.04.02.06.02.11,0,.22,0,.33,0,.02,0,.04,0,.05-.01.03-.02.04-.06.06-.09.02-.03.06-.06.08-.03.04.09.08.18.12.27-.01.04-.06.04-.08.01s-.04-.06-.07-.07c-.05-.02-.1.04-.11.1,0,.07.02.13.06.16.04.04.09.05.14.05.18.02.37-.05.55-.1.34-.08.69-.07,1.03,0,.11.02.23.05.33-.02.09-.06.15-.18.19-.3.04-.12.04-.28-.04-.34-.09-.07-.21.05-.32.07-.11.02-.22-.08-.26-.21-.04-.13-.03-.29,0-.43-.07,0-.14-.03-.18-.09,0,.07-.06.12-.11.15-.05.03-.11.04-.15.08s-.08.12-.05.18c.02.05.07.05.11.07.04.01.08.05.08.11,0,.07-.08.08-.13.07.03.08.11.12.18.08,0,.05-.03.1-.07.13-.04.02-.08.02-.12.02-.09-.02-.16-.06-.24-.11-.08-.05-.16-.1-.24-.15-.05-.03-.09-.06-.13-.1-.03-.03-.06-.07-.1-.1-.06-.06-.14-.08-.22-.07-.02,0-.03,0-.04,0-.02-.02-.01-.07-.02-.11-.01-.06-.07-.08-.12-.09-.11-.01-.22-.03-.33-.04.03,0,.05.05.04.09-.01.04-.05.06-.07.04-.01,0-.02-.02-.03-.02-.02,0-.03.04-.04.06-.03.08-.12.06-.18.04Z"/>
      <path class="cls-1" d="M62.14,13.66s.07,0,.11-.01c.04-.01.07-.07.04-.1,0-.01-.02-.02-.04-.02-.1-.02-.87-.16-.86.12,0,.03.01.05.02.07.04.07.07.13.11.2,0,.01.01.03.02.03.02.01.04.01.06.01.15,0,.29-.04.44-.07.02,0,.04,0,.05-.03.03-.04,0-.1,0-.15,0,0,0-.02,0-.03,0-.01.02-.02.03-.02Z"/>
      <path class="cls-1" d="M61.6,13.06c0,.06.03.11.06.13.04.03.08.03.13.04.1,0,.19.01.29.02.11,0,.24-.01.31-.13-.04.01-.08-.03-.1-.07s-.04-.1-.07-.13c-.02-.02-.05-.02-.08-.02-.17-.02-.36-.04-.51.09,0,0-.08-.02-.1-.02-.04,0-.07.03-.1.05-.04.04-.1.11-.14.17.05.01.1-.04.15-.08.05-.04.11-.08.15-.05Z"/>
      <path class="cls-1" d="M63.86,12.95s.1.01.15,0c-.05.03-.1.07-.12.14.09.04.2-.03.29,0,0,0,0,0,.01,0,0,0,0,.01,0,.02,0,.05-.02.09-.02.14-.08,0-.17-.04-.23.03,0,0-.02.02-.02.03,0,.04.03.06.06.06.15.02.31.05.46.07.04,0,.08.01.12.03.03.01.05.03.08.05.08.04.18.01.25.07.04.03.06.08.09.12.06.11.13.22.23.23.04,0,.08,0,.1-.03.04-.05.04-.13.01-.19-.03-.06-.08-.09-.12-.11-.02-.01-.05-.02-.07-.05-.02-.03-.02-.07,0-.09.02-.03.07-.02.08-.06,0-.02,0-.04-.02-.05s-.03-.02-.04-.03c-.03-.03-.05-.08-.07-.13-.04-.08-.14-.1-.21-.04,0,0-.02.01-.02.02-.03.01-.06-.02-.07-.06-.01-.04-.01-.08-.02-.12-.02-.05-.05-.09-.09-.1-.05-.01-.11.02-.16.04-.05.02-.12.04-.16,0-.03-.03-.04-.07-.06-.11-.07-.15-.2-.12-.32-.1-.05,0-.1.01-.14.05-.02.02-.04.05-.04.09,0,.04.04.05.07.06Z"/>
      <path class="cls-1" d="M62.94,13.31s.03.03.04.04c.02,0,.04.01.06.01.04,0,.08,0,.11-.01.02,0,.05-.01.07-.03s.03-.05.03-.08c0-.04-.03-.06-.06-.07s-.06-.02-.07-.05c-.02-.03-.02-.08-.03-.12-.01-.05-.05-.08-.08-.09-.03-.01-.09-.03-.1.02,0,.02,0,.05,0,.08,0,.03-.02.05-.03.08-.01.04,0,.09,0,.13.01.04.04.07.06.1Z"/>
      <path class="cls-1" d="M63.45,14.33c.07.12.15.25.26.3.05.02.1.03.15.03.22.02.45-.03.66,0,0,.02,0,.05-.02.06-.02.01-.04.02-.05.02-.04,0-.08,0-.12,0-.01,0-.03,0-.04,0-.03.01-.03.06-.04.09l-.02.19s0,.03,0,.05c0,.01.02.02.03.02.13.04.26.06.4.05.04,0,.09,0,.12-.05.01-.02.02-.03.03-.05.02-.04.04-.09.05-.13.05-.13.11-.26.14-.4.02-.1.03-.22-.03-.28-.05-.05-.12-.04-.19-.01-.06.03-.13.06-.19.06-.08-.01-.14-.09-.2-.15s-.14-.12-.22-.08c0,0-.01,0-.02.01-.02.02,0,.07.01.08.02.02.05.02.07.02.03,0,.06.02.08.03.02.01.05.03.06.06s.02.07,0,.1c-.02.04-.06.07-.09.06-.04,0-.07-.04-.09-.07-.02-.03-.04-.07-.07-.11-.02-.03-.05-.06-.08-.06-.03,0-.07.03-.08.07,0,.04.01.07.03.09s.04.04.05.07c0,.02,0,.04,0,.06,0,.01-.01.02-.02.03-.03.02-.06.01-.09,0-.03-.02-.05-.04-.07-.07-.03-.04-.05-.08-.08-.13-.04-.08-.07-.16-.12-.22-.08-.1-.37-.19-.31.08.01.06.04.1.06.15Z"/>
      <path class="cls-1" d="M66.14,13.57c-.09-.03-.17,0-.23.11-.04.09-.02.21.03.27.05.06.11.09.16.14.03.02.05.07.03.11-.02.03-.06.02-.08.05,0,.02,0,.04,0,.05.02.04.06.05.1.05.14,0,.27,0,.41-.02.01,0,.03,0,.04-.02,0,0,0-.02,0-.03.01-.09.02-.17.03-.26,0-.02,0-.05,0-.06,0-.01-.02-.01-.03-.01-.05,0-.09,0-.14,0-.05,0-.09-.04-.1-.09,0-.02,0-.04,0-.06-.01-.05-.06-.07-.09-.04,0,0,0,0-.02.01-.02,0-.04-.02-.03-.05,0-.03,0-.05,0-.08,0-.04-.04-.06-.08-.07Z"/>
      <path class="cls-1" d="M61.99,18.21c.1-.02.21.02.31.03.1.01.23-.01.28-.11l-.64-.38c-.09-.05-.18-.11-.24-.19-.06-.07-.09-.16-.09-.26,0-.06,0-.11,0-.17-.03-.19-.23-.33-.18-.52.05-.19.35-.22.38-.42.02-.11-.05-.21-.14-.25s-.2-.05-.3-.04c-.05,0-.11,0-.16.03-.1.07-.08.22-.05.33-.12-.09-.27-.13-.42-.11-.03,0-.05,0-.08.02-.05.04-.03.13,0,.19.03.06.05.11.08.17.05.1.1.22.07.33-.02.11-.15.21-.24.15-.07-.04-.08-.14-.08-.22,0-.08.03-.17.01-.25-.02-.1-.1-.18-.19-.22-.09-.04-.19-.05-.29-.06.01.07.04.13.08.19-.1,0-.2.02-.31.03-.05,0-.1,0-.14-.03-.03-.03-.04-.09-.05-.13-.05-.16-.25-.23-.38-.14-.04.03-.08.07-.12.1-.05.03-.11.04-.14,0-.03-.09.06-.21,0-.28-.02-.02-.04-.03-.07-.03l-.5.06c-.21.03-.4.12-.57.26-.06.05-.12.11-.15.19s-.01.18.05.22c.04.03.08.03.13.04.15.02.29.04.44.06-.04.09-.16.1-.25.08-.06-.01-.11-.04-.17-.03-.06,0-.12.05-.12.11,0,.07.07.12.13.15.42.17.91.06,1.33.23.02,0,.04.02.04.04,0,.03-.04.05-.07.05-.33.03-.67-.06-.99,0-.06.01-.14.06-.12.12,0,.02.02.04.04.05.14.14.29.28.49.3.06,0,.12,0,.17,0,.06,0,.12.04.13.1.01.04,0,.08.01.12.02.1.15.14.25.15.33.05.66.11.99.12.1,0,.21,0,.31-.04.16-.07.29-.23.46-.2.06.01.11.05.16.08.25.16.54.23.83.29.04,0,.08.02.12,0,.04-.01.07-.05.07-.09,0-.05-.06-.07-.1-.09-.04-.02-.08-.07-.05-.11.01-.02.03-.03.05-.03Z"/>
      <path class="cls-1" d="M63.25,16.25s.07.02.1.02c.04,0,.08,0,.12,0,.01,0,.02,0,.03.02,0,.01,0,.03,0,.05-.01.08-.03.15-.04.23-.12,0-.23-.03-.33-.11-.06-.05-.12-.11-.19-.11-.02,0-.05,0-.07.03-.02.03-.01.06,0,.09,0,.07.02.14.03.2.29.04.56.24.73.54.06.11.12.24.23.26.04-.05.01-.16.06-.2.02-.02.05-.01.08,0,.1.01.2-.05.27-.15.07-.1.1-.24.1-.37-.05.03-.11,0-.13-.05-.03-.06-.01-.14.03-.19l-.28-.02s.02-.1.05-.12c.03-.02.07-.03.11-.06.07-.05.1-.18.06-.26,0-.01-.01-.02-.02-.03,0,0-.02,0-.03,0-.22-.02-.45-.05-.67-.07-.06,0-.11,0-.17.05-.05.05-.14.17-.07.24Z"/>
      <path class="cls-1" d="M65.74,16.71s.06,0,.09.03c.03.02.05.05.08.06.02,0,.05,0,.07,0,.06,0,.12-.02.18-.04.03-.01.06-.02.09-.05.03-.04.05-.1.08-.14.06-.1.17-.13.25-.19.03-.02.06-.04.07-.07.02-.03.02-.08,0-.1,0,0-.02,0-.03-.01-.12-.04-.24-.07-.36-.08-.12-.02-.24-.02-.35-.08-.05-.02-.1-.06-.15-.06-.05,0-.12.03-.13.1-.02.12-.03.11-.13.11-.05,0-.1.01-.13.06-.08.12-.03.36.02.48.02.06.05.11.05.17,0,.08-.04.15-.05.23,0,.03,0,.06.01.08,0,0,.02.01.03.02.05.01.1-.02.15-.05.05-.04.11-.08.16-.12.03-.02.05-.05.07-.08.02-.04.02-.09,0-.11-.03-.02-.07-.01-.09-.05-.02-.03,0-.08.04-.09Z"/>
      <path class="cls-1" d="M65.24,15.41c0,.06.07.06.12.07.06,0,.11.03.16.07.04.04.08.09.13.13.05.03.11.04.17.05.04,0,.09,0,.12-.03.02-.03.03-.07.04-.11.01-.06.02-.12.02-.18,0-.06-.02-.12-.06-.15-.03-.02-.06-.03-.08-.06-.02-.03-.02-.06-.04-.09-.02-.03-.06-.04-.09-.04-.05,0-.12-.01-.16.03-.04.04-.05.11-.09.15-.04.04-.09.04-.13.05-.05.01-.1.06-.09.11Z"/>
      <path class="cls-1" d="M66.88,15.74c-.04.07-.02.17.03.23s.11.08.17.1c.1.04.2.07.3.11.08.03.16.05.23,0,.07-.06.12-.21.2-.19.05.01.08.08.12.13.07.08.16.08.25.08.25,0,.49,0,.74,0,.05,0,.09,0,.13-.03.04-.03.06-.07.09-.1s.08-.05.11-.02c.03.02.04.07.06.11.04.05.1.05.15.05.13,0,.26-.02.39-.03.06,0,.13,0,.18-.05.05-.04.09-.13.07-.21-.01-.05-.06-.1-.05-.16,0-.02.01-.04.01-.05.01-.06-.04-.12-.08-.15-.26-.2-.59-.13-.88-.02-.29.11-.58.26-.88.22-.21-.03-.41-.15-.62-.13-.03,0-.06,0-.08,0-.02-.01-.04-.06-.03-.09.02-.04.08-.04.07-.08-.05-.02-.11-.02-.17,0-.06,0-.12,0-.17-.03-.05-.04-.08-.12-.05-.19.11,0,.23-.01.34-.02-.03-.07-.09-.09-.15-.1-.06,0-.12,0-.17-.04-.05-.04-.09-.13-.05-.19-.11.09-.24.16-.36.13-.17-.03-.3-.2-.45-.3-.12-.08-.34-.16-.45-.05-.08.07-.12.25,0,.32.1.05.21-.01.3.02.09.03.16.15.26.16.02,0,.05,0,.07-.02.02-.01.03-.04.05-.05.05-.04.12,0,.15.07s.05.14.08.21c.03.06.08.11.14.14.02,0,.03.01.04.03.03.04.01.1-.02.13-.03.03-.07.05-.09.09Z"/>
      <path class="cls-1" d="M65.64,12.26c.06.05.15,0,.22,0,.03,0,.06,0,.07.03.01.04-.02.08-.06.09s-.06-.01-.1-.02c-.03,0-.07,0-.09.05-.02.06.03.1.07.12.04.02.09.04.12,0,.02-.03.03-.08.07-.08.02,0,.04.03.04.05,0,.03,0,.06.02.08.02.04.06.04.1.02.04-.01.07-.04.1-.06.05-.02.1,0,.15,0,.13.03.26.07.39.12-.11.07-.24.01-.36,0-.1,0-.21.03-.3.1-.02.02-.04.04-.04.07,0,.03.02.05.04.06.06.05.13.08.2.1.04.01.09.04.08.09,0,.04-.04.06-.08.08-.03.01-.07.05-.06.09,0,.03.03.04.05.05.16.06.32.12.47.17.04-.04.04-.12.04-.18,0-.06.05-.14.09-.12.02,0,.02.03.03.04.06.11.14.19.23.24,0-.07,0-.13-.01-.2.04.03.09.06.13.08.02-.05.02-.12,0-.17-.01-.03-.03-.05-.03-.08,0-.05.05-.08.09-.1.04,0,.02.11.05.14,0,.01.02.01.03.02.13,0,.21-.22.34-.26.05-.02.1,0,.15,0,.05,0,.1.01.15-.02s.08-.11.05-.16c-.02-.04-.05-.05-.08-.06-.12-.04-.24-.07-.36-.09-.03,0-.06,0-.08-.03-.02-.02-.03-.07-.01-.1.01-.02.03-.03.05-.04.03-.03.04-.1.02-.13-.02-.03-.07-.04-.08-.08,0-.03,0-.06,0-.09.01-.09-.06-.18-.13-.16-.04.06.04.15,0,.21-.02.05-.08.04-.1,0-.02-.04-.02-.1-.02-.15,0-.05,0-.11-.04-.14-.02-.02-.06-.03-.09-.03-.09,0-.17-.01-.26-.02-.04,0-.08,0-.11-.04-.04-.04-.05-.11-.07-.18-.04-.18-.16-.31-.28-.39-.13-.08-.27-.11-.42-.12,0,.07.05.11.1.14s.11.05.13.11l-.29-.04s-.07-.01-.11,0c-.04.01-.07.05-.08.1-.01.07.04.12.09.14.05.01.1,0,.15,0,.05,0,.11.02.13.07,0,.01,0,.03,0,.04,0,.01-.01.02-.02.02-.07.04-.15.02-.21-.02-.06-.04-.13-.09-.2-.11-.05-.01-.11,0-.13.07-.02.06,0,.12.05.15.04.03.09.03.13.05.06.02.11.05.16.1.01.01.03.03.03.06,0,.04-.04.07-.08.07-.11,0-.22-.04-.3-.13-.04-.04-.12-.09-.12.02,0,.07.05.18.08.24.02.04.04.07.07.09Z"/>
      <path class="cls-1" d="M67.19,11.01c.12,0,.23-.02.35-.03.02,0,.04,0,.06.01.02.01.02.05,0,.07,0,.01-.03.01-.04.02-.03,0-.06.01-.09.03-.02,0-.04.03-.04.05,0,.02.02.04.04.05.05.03.11.03.17.01.15-.04.28-.1.43-.15.04.05.05.14.02.2-.19-.04-.41,0-.59.13.13-.01.26,0,.38.06-.06.06-.14.07-.2.04.05.24.3.31.49.25.1-.03.2-.08.28-.02.07.05.09.18.16.23.1.07.24-.05.36-.04.05,0,.1.03.15.05.29.12.62,0,.93-.12-.08.19-.24.3-.4.34-.16.03-.32,0-.47-.03,0,.22.13.41.3.43-.09.09-.22.09-.31.01-.09-.07-.15-.2-.17-.34,0-.05-.02-.1-.05-.13-.02-.02-.05-.03-.08-.03-.2-.03-.4-.05-.59-.07.02.05.03.1.03.16-.03,0-.06,0-.09,0-.04.07.03.14.08.17.1.05.2.08.29.16.09.08.15.22.11.35-.04.14-.16.21-.27.23-.11.02-.22,0-.33.06s-.21.18-.19.32c.13,0,.26-.03.39-.07,0,.28.13.53.32.63-.19.07-.4,0-.54-.16-.11-.13-.21-.33-.36-.28-.02.22.07.43.22.53-.07.08-.18.09-.27.08-.09-.01-.18-.05-.28-.04-.09.01-.2.08-.22.2-.03.12.07.25.15.19.05-.03.08-.12.13-.14.09-.04.15.09.21.17.12.16.32.15.49.13.35-.03.7,0,1.04.07.03,0,.07.01.09.04.03.03.04.09.07.14.05.09.15.12.24.11.19-.01.38-.12.52-.3.03-.03.05-.07.05-.12,0-.1-.12-.11-.2-.09s-.2-.03-.17-.13c0-.03.03-.05.05-.07.09-.06.19-.06.28-.11s.17-.21.11-.3c.11.01.21.03.32.04.03,0,.07,0,.1,0,.05-.01.09-.06.13-.1.1-.1.2-.2.29-.3.02-.02.03-.03.04-.06.03-.11-.13-.11-.18-.2.08-.05.16-.07.25-.09,0-.15-.15-.2-.26-.2.24-.08.48-.11.72-.07.09.01.18.04.27,0,.11-.04.19-.16.28-.25.49-.55,1.2-.52,1.8-.84-.2-.03-.39-.06-.59-.09.12-.12.28-.1.43-.09.32.02.66-.06.97-.23.02-.01.05-.03.07-.06.03-.07-.02-.14-.07-.17-.18-.11-.41-.09-.55-.27-.04-.05-.06-.12-.11-.15-.05-.03-.11-.02-.17-.01-.2.04-.39.08-.59.12.06-.04.06-.16.02-.22s-.11-.07-.18-.08c-.46-.07-.91-.15-1.37-.22-.03,0-.07-.01-.1.01-.02.02-.04.05-.06.07-.05.05-.12.03-.17-.02-.05-.05-.09-.11-.14-.15-.08-.05-.17-.03-.26-.02-.28.05-.56.03-.83-.03-.09-.02-.2-.05-.27.03-.04.04-.06.1-.1.12-.1.06-.2-.09-.3-.08-.13.02-.17.27-.28.37-.13.11-.29-.02-.41-.14-.12-.12-.31-.21-.41-.04-.02.03-.03.06-.05.08-.03.03-.06.03-.09.04-.23.02-.45-.05-.68,0-.08.02-.17.04-.25.05-.1.02-.21.05-.3.13-.02.02-.05.06-.05.09,0,.05.06.06.09.05Z"/>
      <path class="cls-1" d="M75.24,12.31c-.31.22-.75-.1-1.12,0-.12.04-.23.12-.33.19-.34.26-.68.53-1.02.79.24-.02.54-.05.78-.07.03.17.06.37-.07.48-.07.06-.16.08-.25.11-.29.07-.58.16-.86.27-.06.02-.12.05-.16.09-.04.05-.07.12-.04.17.48.21.97.42,1.5.4-.21.12-.34.36-.33.59,1.11-.35,2.36-.25,3.4.26,1.04.52,1.88,1.45,2.27,2.54.19-.22-.08-.69.2-.81.09-.04.2,0,.29.04.34.16.65.37.92.62l-.81.06c0,.29.18.56.44.68.26.12.59.07.8-.12.06-.05.12-.12.19-.15.18-.07.37.1.45.28.08.18.12.39.28.51-.23.08-.43.26-.54.48.24.18.69-.2.83.07.03.06.02.13.02.19-.03.33-.06.65-.09.98.25-.16.51-.31.76-.47-.11.26-.21.53-.32.79.25-.06.49-.13.74-.19-.12.37.04.81.38,1,.07-.19.25-.34.44-.37.19.12-.1.41-.03.62.07.23.44.12.66.24.15.08.2.26.29.4.17.27.48.42.77.55.51.23,1.02.45,1.53.68.12.05.26.11.39.05.1-.05.17-.16.28-.17.06,0,.11.02.16.05.17.1.3.27.45.41.15.14.33.27.53.26s.4-.2.35-.4c-.03-.11-.13-.18-.2-.26-.22-.23-.31-.58-.23-.89-.3,0-.58-.27-.58-.57,0-.16.06-.32,0-.47-.05-.1-.15-.16-.24-.23-.38-.28-.59-.77-.53-1.24.02-.16.07-.32.19-.42s.32-.12.43-.01c.04.04.07.1.11.15.14.16.43.11.56-.06s.14-.4.09-.61c-.1-.49-.44-.91-.89-1.12.78-.07,1.32-1.04.96-1.74-.42.14-.84.27-1.26.41-.07-.12-.1-.25-.1-.39-.16.02-.34.04-.49-.03s-.26-.25-.19-.4c.53.14,1.07.24,1.61.28-.3-.48-.91-.75-1.47-.65-.05-.36-.45-.62-.79-.53-.23.06-.51.25-.68.09-.03-.15.21-.14.35-.21.23-.12.08-.5-.16-.6-.24-.09-.53-.05-.77-.16-.4-.18-.56-.76-.99-.84-.23-.04-.46.08-.69.08-.23,0-.49-.26-.34-.44-.8-.04-1.55-.42-2.26-.8-.7-.37-1.4-.74-2.11-1.12-.08.16-.07.36.02.5-.35.1-.7-.42-1.03-.26-.12.06-.19.19-.31.22-.13.04-.27-.06-.29-.19-.02-.13.09-.26.22-.27-.41-.22-.88.21-1.34.19-.18-.01-.35-.09-.52-.12s-.39.02-.46.18c.18.01.33.2.31.38Z"/>
      <path class="cls-1" d="M115.34,32.6c.17.28.31.59.53.84.22.25.56.43.88.35.32-.08.53-.52.32-.77-.09-.1-.22-.15-.31-.25-.1-.09-.14-.27-.03-.35.09-.07.23,0,.34-.04-.22-.48-.44-.97-.85-1.29-.14-.11-.31-.24-.27-.41.03-.15.21-.23.27-.37.05-.13,0-.27-.07-.39-.3-.63-.62-1.28-1.19-1.68-.39-.27-.88-.42-1.16-.8-.12-.17-.2-.38-.33-.54-.32-.38-.94-.44-1.19-.87-.11-.19-.12-.42-.21-.62-.21-.46-.76-.63-1.19-.89-.63-.39-1.04-1.04-1.47-1.64-.37-.52-.77-.98-1.33-1.29-.21-.12-1.21-.66-1.2-.11,0,.07.04.14.08.2.17.23.44.36.67.53s.43.44.38.72c-.05.32-.41.63-.22.89.09.13.28.15.43.19.53.14.91.71.85,1.26.23-.04.46.05.67.13.37.14.76.3,1.06.56.1.09.2.21.22.34.03.14-.04.3-.18.34-.09.03-.18,0-.27.02-.21.05-.26.34-.16.53.1.19.3.3.47.42.17.12.34.29.34.51,0,.17-.11.34-.05.5.09.23.47.27.49.52.02.25-.37.41-.32.65.02.12.14.19.25.25,1.38.69,2.93,1.28,3.74,2.59Z"/>
      <path class="cls-1" d="M120.04,38.43c-.16-.18-.34-.34-.46-.55-.17-.3-.18-.66-.31-.97-.32-.78-1.3-1.16-1.55-1.97-.06-.2-.08-.41-.15-.61-.07-.19-.23-.38-.44-.39-.12,0-.23.04-.35.07-.24.06-.51.04-.74-.06-.36-.16-.37-.12-.6.14-.17.19-.43.3-.68.29-.08,0-.15-.01-.22.01-.12.04-.18.19-.18.31-.02.37.27.68.55.93.79.72,1.73,1.4,2,2.44.07.28.1.59.25.84.21.35.64.52.87.85.15.22.2.49.25.76.02.09.04.18.12.22.12.05.23-.08.27-.2.04-.12.06-.27.17-.33.16-.1.35.06.46.21.11.15.27.33.45.27.04-.01.08-.04.11-.07.17-.18.1-.47.15-.71.06-.29.31-.53.33-.83.02-.24-.12-.46-.28-.64Z"/>
      <path class="cls-1" d="M127.94,48.77c.14-.21.29-.47.22-.71-.46-1.71-.48-2.8-1.42-4.09-.4-.55-.68-1.43-1.03-2.02-.3-.49-.61-1.1-.86-1.62s-.64-1.08-.98-1.57c-.54-.78-.83-1.52-1.4-2.29-.78-1.06-1.39-2.11-2.22-3.13-.67-.83-1.34-1.66-2.01-2.48-.08-.1-.17-.28-.26-.37-.21-.2-.53-.4-.83-.39-.24-.16-.6.08-.64.37s.15.56.38.75.5.31.73.49c.35.28.59.7.65,1.15.02.17.03.36.14.49.14.15.38.14.57.2.28.1.46.37.58.64.12.27.2.56.36.81.16.23.39.4.6.58.67.56,1.25,1.26,1.45,2.11-.27.06-.55.08-.83.08-.07.39.07.78.15,1.17.16.72.14,1.49-.06,2.2-.05.18-.19.41-.37.34-.06-.02-.11-.08-.17-.11-.14-.08-.33,0-.42.13s-.11.3-.1.46c.02.41.17.81.43,1.13,1.25,1.52,1.63,3.55,1.94,5.5.04.25.08.52.24.72.22.28.59.37.95.42,1.19.16,2.42,0,3.52-.46.26-.11.53-.25.7-.48Z"/>
      <path class="cls-1" d="M108.32,94.56c-.77-.64-1.79-.9-2.64-1.42-1.17-.72-2.1-1.97-3.46-2.15-.33-.04-.69-.02-1-.15-1.14-.48-.63-2.17-.83-3.39-.31-1.9-2.68-2.74-4.58-2.42-1.89.33-3.58,1.4-5.46,1.82-1.87.42-4.27-.16-4.85-1.99-.08-.25-.13-.53-.31-.72-.25-.26-.67-.27-1.03-.25-1.45.06-2.89.12-4.34.18l-1.89.26c-.79.05-1.6-.12-2.35.11-.56.17-1.04.54-1.58.77-1.13.48-2.52.27-3.46-.52-.94-.79-1.37-2.13-1.08-3.32.08-.32.21-.64.18-.97-.08-.96-1.28-1.31-2.22-1.48s-2.12-.75-1.95-1.7c.06-.31.26-.57.46-.82.71-.89,1.43-1.79,2.14-2.68-.56-1.03-3.13-2.46-3.07,0,.03,1.18-1.51,1.88-2.57,2.39-1.68.8-3.62-.24-5.19-1.25-1.54-1-3.15-2.09-3.92-3.75-.99-2.12-.39-4.62.42-6.81.74-1.99,1.66-4.01,1.7-6.11,5.01-1.58,13.07-5.19,14.58-6,2.21-1.18,4.22-7.12,4.22-7.12,0,0,.18-1.22.26-1.7s.41-.96.89-.85c.48.11,1,0,1.36-.22.37-.22.52-.33.74-.18.22.15.22-.12.09-.26-.14-.14-.5-.29-.51-.5-.01-.21-.16-.59.51-1.32.33-.36.8-.82,1.24-.81.44,0,.76-.17.73-.37-.03-.21-.16-.49-.26-.62-.1-.14-.21-.65.1-.5s.6.44.72.64c.12.2.42.22.55.12.13-.1.42-.37.69-.37s.42.01.53.1c.11.09.22.34,0,.45-.22.11-.76.37-.81.5-.05.13-.19.49-.17.65s.1.35.25.34.71-.62.85-.77c.14-.15,1.03-.79,1.29-.77.26.01.84-.09,1-.34.15-.25.25-.55.17-.71s-.47-.15-.54-.07c-.07.08-.31.42-.49.41s-.45-.48-.58-.49c-.13-.01-.93.04-.93.04,0,0-.47.01-.56-.33-.05-.21-.01-.71-.01-.71,0,0,.06-.36-.22-.37s-.5.07-.5.07c0,0-.48-.02.36-.43.25-.12.28-.39-.07-.51-.33-.12-.92-.19-1.29-.09-.16.04-.74.22-1.4.8-.21.18-.49.51-.58.57-.1.06-.55.27-.59.08s.07-1.11.3-1.28c.22-.18.44-.25.56-.26s1.45-.87,1.56-.95c.1-.07.61-.44,1.24-.43.63.01,2.62.04,2.62.04,0,0,.77-.03.97-.38.2-.35.48-.61.67-.68.19-.06.55-.3.58-.3s.18-.18.32.08.15.45,0,.57c-.15.12-.23.35-.2.5.04.15.18.74-.04.98-.22.24-.6.56-.6.56,0,0-.31.2-.27.33.04.13.26.1.43.1s.38.04.23.19-.29.14-.34.26.1.26.2.27c.1,0,.55.01.62-.08.07-.09.19-.29.27-.24.08.05.21.3.48.26.18-.03.35.04.42-.06.07-.1.22-.26.28-.26,0,0,.45.38.86.23.41-.15.64-.32.79-.1.15.22.11.63.38.76.27.14.65.01.63-.31s-.02-.44-.2-.64c-.17-.2-.49-.42-.68-.3s-.28.12-.27-.17c.01-.3-.17-.37-.26-.45-.09-.09-.06-.15-.07-.27-.01-.12-.38-.18-.45-.18s-.54-.47-.64-.69c-.1-.22,0-.97-.16-.96s-.95-.7-1-.96c-.05-.26-.27-.77-.57-.91-.3-.14-.76-.15-1.07-.38-.31-.23-.59-.47-.65-.55-.06-.09-.52-.3-1.46-.6-.95-.31-1.56-1.06-1.56-1.06,0,0-.63-1.07-.7-1.22-.07-.15-.96-.52-1.14-.71s-.41-.48-.39-.69c.01-.21-.09-.43-.22-.3-.14.14-.26.57-.32.82s-.28.77-.53.9c-.25.12-.6.15-.71.06-.11-.09-.81-.23-.92-.52-.11-.28-.07-.69-.07-.69,0,0,.07-.32-.11-.49-.18-.17-.43-.05-.54-.22-.11-.17-.26-.5-.59-.63-.33-.12-.71.1-.84.01s-.28-.31-.28-.31c0,0-.17-.36-.57-.34-.39.01-.55.1-.76.01-.21-.09-.45-.34-.65-.34s-.43.06-.48.16c-.05.1.32.38.23.53-.09.15-.48.41-.3.64.18.23.81.23.48.66-.33.43-.93.74-.63,1.14.31.41,1.23,1.11.89,1.88-.38.86-1.02,1.23-1.3,1.22-.28-.01-.39-.05-.26.27s.37.58.39.9c.02.32,0,1.13-.2,1.48-.2.34-.87.45-1.06.23-.18-.22-.93-1.17-.92-1.4.01-.23.12-.92.22-1.2s.26-.66-.04-.8c-.3-.14-1.01.09-1.59-.11-.58-.2-2.36-.48-3-.92s-1.38-.31-1.55-.48c-.17-.17-.3-.48-.17-.74s.01-.76-.3-.93c-.31-.17-.98-.12-.37-1s1.3-1.48,1.66-1.65c.36-.17.77-.53.59-.71-.18-.18-.96-.64-.43-.59.53.05.93.17,1.06.27s.02.11.41-.06c.38-.17.75-.28,1.05-.27.3.01.53-.15.33-.33-.2-.18-.31-.25-.42-.3-.11-.05-.23-.38.17-.22.41.16.65.32.81.25s.37-.28.61-.39c.25-.11.52,0,.64-.01.12-.01.3-.26.33-.49.04-.23.22-.27.49-.14.27.14.52.14.52-.06s-.15-.34-.24-.45c-.09-.11-.03-.38.11-.45.14-.07-.11-.37-.37-.39-.26-.02-.15-.41.06-.41s.48.06.65.07c.17.01.41-.09.49-.16.09-.07.58-.18.79,0,.21.18.91.7,1.36.89.45.18,1.28.66.89,1.08-.39.42-.52.11-.59,1-.01.16,0,.14-1.18.38-.84.17-.26.57.11.57s.9-.31,1.32-.31.82.05,1.33.73c.43.58,1.27.77,1.45.79.18.01.7.06.81.06s0-.11-.23-.25c-.23-.14-.3-.45-.01-.43.28.02.91.43,1.05.39.14-.04.42-.09.43-.47.01-.38-.3-.59-.57-.66-.27-.07-1.57-.68-1.68-.98-.11-.31-.1-.6.44-.54.54.06.82.15,1.03.39.21.25.57.52.77.53.21.01.25-.18.23-.28s.04-.45.14-.57c.1-.11.01-.22-.37-.43-.38-.21-2.29-1.02-2.47-1.02s-.14-.14.01-.37c.15-.23.07-.32-.27-.5-.34-.18-.77-.31-1.11-.16-.33.15-.5.02-.54-.16-.04-.18-.91-.63-1.27-.79s-.68-.34-.91-.45c-.23-.11-.32-.49-.68-.42-.36.07-.42.32-.55.47-.14.15-.5-.11-.59-.25s-.22-.3-.37-.23c-.15.07-.33.08-.36.3-.02.22-.02.82-.18.82s-.36.01-.32-.28c.04-.3.22-.49.16-.68s-.31-.2-.58-.19c-.27.01-.92.17-1,.33-.07.16.05.32.22.57.17.25-.02.55.06.69.09.14,1.02.22.96.86-.06.64-.3,1.24-.58,1.07-.28-.17-.45-.33-.45-.7s-.26-.37-.37-.23c-.11.14-.1.23-.26.32-.16.09-.36-.1-.39-.41s-.06-.45-.36-.52-.3-.26-.09-.37c.21-.11.5-.31.16-.59-.34-.28-.82-.12-1.07-.01-.25.11-.77.41-.64.59s.52.07.58.25c.06.17.12.39-.06.45-.18.06-.48-.07-.71-.27-.23-.2-.6-.43-.73-.2-.12.23-.25.55-.23.84.01.28.09.63-.9.31-.98-.32-1.79-.72-2.08-.81-.45-.15-.82-.01-.96.21s-.22.76-.48.59c-.26-.17-.25-.53-.42-.6-.17-.07-.71-.36-1.08-.47-.37-.11-1.06-.86-1.33-1.13-.12-.12-1.7-1.11-2.09-1.07-.39.04-1.38.01-1.83,0-.45-.01-.79-.11-.87-.4-.09-.3,0-.52.01-.71.01-.2-.18-.44-.39-.48-.21-.04-.76,0-.74-.39.02-.39.09-.73.22-.85.14-.12-2.42.07-2.79.15-.37.07-2.04.93-2.19,1.08s-.86.57-.95.55c-.09-.01-.01-.44.02-.59.04-.15-.17.09-.39.18-.22.09-.64.42-.67.62-.04.2-.09.25-.25.41s-.49.27-.76.25c-.27-.02-.6-.08-.91.15-.31.23-3.47,1.74-3.63,2.1-.16.36-.14.66-.23.77-.1.11-.47.53-.74.66-.27.14-.8.36-1.14.48-.34.12-1.52.7-1.52.7.47-.07,1.48-.5,1.89-.43.42.07,1.03.14,1.3-.19.27-.33,1.06-.81,1.23-.93.17-.12.59-.39.54,0-.05.39-.15.49.39.39s.91-.2,1.3-.32c.39-.12.22.05.25.37.02.32-.05.47.2.57.25.1.81.12.79.42s-.27.98-.22,1.2c.05.22.17.93.22,1.2.05.27-.15.66,0,.86.15.2.74.37.34.84-.39.47-1.01.34-1.08.59-.07.25,0,.59-.02,1.25-.02.66-.18.8-.86,1.35-.39.32.15,1.77.3,2.19.15.42.25.69.3.96.05.27.15.74-.25.84s-.59-.1-.71-.22-.47-.17-.71.25c-.25.42-.37.98-.76,1.42s-1.62,1.62-1.92,2.04-.39.54-.44.76c-.05.22.07.74-.17.96s-.74.47-.81.76-.17,1.6-.07,3.69c.03.57.12,1.52-.22,2.09-.34.57-2.42,4.06-1.32,6.05.98,1.76,6.37,2.14,8.33,4.27-.21.18-.41.36-.65.48-1.09.52-2.44-.36-3.58.05-.41,7.31,1.72,9.2,5.81,15.64-1.91-7.62-4.88-11.38-1.9-11.13-1.35,2.3.29,4.03,1.16,5.38,1,1.56,1.55,4.15,2.51,5.74.75,1.24,2.18,2.53,2.27,3.98.38,5.77,1.64,4.12,6.52,7.22.59.37,1.36.71,1.94.33.42-.28.56-.84.95-1.16.59-.48,1.52-.19,2.07.34.55.54.86,1.26,1.35,1.85,1.34,1.63,3.78,2.04,5.12,3.68.38.46.65,1.01,1.07,1.43s1.06.72,1.61.5c.55-.22.76-1.12.24-1.41,1.84.79,3.57,2.04,3.05,4.12-.52,2.08-2.4,4.16-1.47,6.42.22.53.43,1.06.65,1.58.09.21.17.42.32.59.15.19.37.32.5.52.23.33.2.76.27,1.16.12.65.56,1.23,1.15,1.53.32.16.69.19,1.03.28.35.1.71.25.92.54.12.17.2.39.38.5.33.19.83-.1,1.08.18.16.17.11.47.28.63.16.15.42.1.61.22.15.1.22.28.27.46.24.77.48,1.57.36,2.36-.07.46-.08.91-.32,1.31-.25.42-.63.76-.82,1.21-.18.44-.16.93-.15,1.4,0,.61-.03,1.23-.3,1.77-.21.4-.54.73-.8,1.09-.75,1.04-.95,2.36-.99,3.64-.01.42-.05.92-.41,1.14-.17.1-.4.14-.48.31-.04.09-.03.2-.06.3-.1.41-.71.52-.83.92-.06.19-.02.46-.2.55-.11.05-.24,0-.35.06-.15.07-.16.3-.08.44.08.15.22.26.3.41.09.15.1.36-.05.45-.06.04-.12.04-.19.07-.25.09-.34.47-.15.66-.31.31-.55.68-.74,1.08-.1.21-.14.52.07.62.17.07.36-.07.43-.24.08-.16.1-.36.19-.51.1-.16.33-.26.46-.13.09.08.09.22.04.33s-.14.19-.23.27c-.4.37-.8.83-.8,1.38,0,.17.04.34.02.5s-.11.34-.28.38c-.14.03-.28-.05-.4-.12-.13-.08-.28-.16-.44-.14-.16.01-.31.15-.29.3.04.24.4.25.54.45.13.19-.01.46-.2.59-.19.13-.42.2-.59.36-.03.03-.06.07-.07.11-.04.17.18.25.33.34.18.12.26.35.27.57,0,.22-.05.43-.09.65-.02.08-.03.17,0,.24.06.12.21.16.34.15.13,0,.27-.04.4,0,.13.04.23.15.36.18.08.02.17,0,.25.01.14.03.23.17.34.27.27.27.69.3,1.08.32.41.02.82.03,1.23.03.09,0,.18,0,.26-.03.19-.07.27-.3.33-.49.02-.05.03-.11,0-.16-.02-.03-.05-.04-.08-.05-.22-.09-.48-.1-.69-.21-.21-.11-.37-.39-.23-.59.05-.07.12-.11.15-.19.03-.08-.04-.19-.11-.15,0-.29.32-.45.6-.52.28-.07.61-.15.71-.41.37-.09.69-.23,1.03-.38.2-.09.41-.2.54-.39.13-.18.14-.46-.03-.61-.08-.07-.19-.1-.28-.16s-.16-.18-.11-.27c.36-.36.87-.57,1.37-.56.18,0,.39.01.49-.14.06-.1.04-.23.05-.35.02-.22.19-.43.41-.49.26-.07.49-.03.74-.14.24-.11.45-.34.45-.61-.17,0-.36-.02-.51-.1-.15-.09-.26-.28-.19-.44.08-.19.33-.23.54-.24.35-.01.7-.02,1.04.08.14.05.29.11.44.08.21-.05.33-.28.37-.49s.03-.44.14-.63c.11-.21.33-.33.56-.39.23-.05.47-.04.7-.04.4,0,.8,0,1.2-.03.42-.03.84-.08,1.23-.23.33-.13.63-.32.92-.52.22-.14.44-.29.6-.5.16-.21.25-.49.17-.74-.15-.03-.24-.29-.14-.4.06-.07.17-.1.22-.18.1-.14-.04-.33-.19-.42-.15-.09-.33-.16-.38-.33-.05-.17.1-.36.27-.4s.36.03.52.12c.16.1.29.22.45.31.45.25,1.01.17,1.5.04.55-.14,1.1-.34,1.56-.67.94-.68,1.41-1.84,2.22-2.67.9-.92,2.11-1.5,3.14-2.27.65-.49,1.33-1,1.7-1.72.33-.64.41-1.44.92-1.95.53-.54,1.37-.6,2.05-.93.35-.17.67-.41,1.05-.48.25-.05.51-.02.77-.02,1.26-.02,2.44-1.01,2.69-2.24.03-.17.19-.26.32-.38.4-.38.82-.75,1.18-1.17.08-.1.17-.21.21-.34.1-.3-.06-.64.05-.94.05-.13.15-.24.26-.33.19-.15.41-.26.6-.41.34-.27.56-.68.6-1.11.05-.52.05-1.09.09-1.61.01-.16.03-.32.09-.47.14-.32.5-.51.61-.85.04-.12.04-.25.04-.38v-.88c.74-.69.14-2.56-.63-3.2Z"/>
      <path class="cls-1" d="M75.39,74.86c-.94-.72-1.74-1.61-2.73-2.26-.98-.65-2.24-1.06-3.35-.64.63.1.23.83.58,1.36.48.73,1.63.38,2.44.71.59.23.95.8,1.35,1.3.52.64,1.14,1.19,1.77,1.73.56.47,1.15.94,1.86,1.11s1.57-.06,1.9-.7c.19-.37-.14-1.59-.55-1.52-1.17.2-2.33-.36-3.27-1.07Z"/>
      <path class="cls-1" d="M80.53,78.66c-.11.55.55.9,1.08,1.07.48.15.96.3,1.43.45.11.03.21.07.32.05.26-.04.39-.35.45-.61.13-.6.17-1.22.12-1.83-1.12-.29-2.41.25-2.99,1.25l-.41-.37Z"/>
      <path class="cls-1" d="M81.92,76.51c.25-.18.36-.53.25-.81-.24,0-.48-.01-.73-.02l-.16-.02c-.29.15-.4.56-.22.83.24.19.6.2.85.02Z"/>
      <path class="cls-1" d="M84.87,76.14c.03-.48-.65-.88-.97-.53l-.52.51c-.2.08-.24.37-.12.55s.35.25.57.25c.48.02,1.01-.31,1.04-.79Z"/>
      <path class="cls-1" d="M132.67,70.93c0-4.08-.3-8.52-1.6-12.38.58,1.83-.73,3.65-1.83,5.22s-2.06,3.76-.9,5.28c.22.29.52.55.63.9.21.69-.39,1.36-1.02,1.71-.63.35-1.37.58-1.8,1.15-.89,1.2.14,2.81.49,4.26.87,3.55-.67,3.97-.02,7.57,1.34.89,1.19,4.13,2.69,3.53,1.61-.64,1.92-2.67,2.09-4.39.17-1.72.47-3.1.73-4.81.15-.97-.04-2.29.16-3.25.32-1.57.39-3.18.39-4.79Z"/>
    </g>
  </g>
</svg>