<?xml version="1.0" encoding="UTF-8"?>
<svg id="Layer_1" data-name="Layer 1" xmlns="http://www.w3.org/2000/svg" xmlns:xlink="http://www.w3.org/1999/xlink" viewBox="0 0 1768.52 1033.53">
  <defs>
    <style>
      .cls-1 {
        fill: #24282a;
      }

      .cls-2 {
        fill: #fff;
      }

      .cls-3, .cls-4 {
        fill: none;
      }

      .cls-4 {
        stroke: #fff;
        stroke-miterlimit: 10;
        stroke-width: 6px;
      }

      .cls-5 {
        clip-path: url(#clippath);
      }

      .cls-6 {
        fill: #c22033;
      }
    </style>
    <clipPath id="clippath">
      <path class="cls-3" d="M11.93,0v1033.53h1756.6V0H11.93ZM1392.69,684.61H303.66v-292.4h1089.03v292.4Z"/>
    </clipPath>
  </defs>
  <g class="cls-5">
    <g id="Globe">
      <ellipse class="cls-6" cx="848.32" cy="538.41" rx="436.92" ry="436.26"/>
      <circle class="cls-4" cx="848.32" cy="538.41" r="429.79"/>
      <path class="cls-2" d="M540.84,842.22c-175.79-246.94-72.33-575.39,200.76-695.77-22.94,11.8-45.15,24.89-66.3,39.61-6.83,4.66-14.21,10.06-20.79,15.12-169.46,127.83-240.34,349.36-157.88,547.92,12.89,31.64,29.33,61.81,48.35,90.27l-4.14,2.85h0Z"/>
      <path class="cls-2" d="M1100.51,883.28c123.02-152.14,142.13-344.33,46.42-515.72-40.36-72.51-97.83-135.09-164.73-184.02-22.38-16.47-45.89-31.29-70.24-44.71,33.4,16.23,65.24,35.79,94.89,58.17,149.84,111.27,242.56,305.47,198.29,491.65-16.52,73.03-52.85,140.66-100.59,197.91,0,0-4.03-3.29-4.03-3.29h0Z"/>
      <path class="cls-2" d="M716.2,947.51c-2.18,1.55-2.65,1.2-3.01.74l-1.27-1.19c-4.92-4.42-10.2-9.88-14.76-14.7-152.06-169.56-102.45-530.46,15.89-708.53,10.11-15.32,21.06-30.27,33.06-44.16,11.98-13.95,24.99-27.01,39.11-38.7-40.11,37.71-70.16,84.37-94.16,133.49-61.92,130.71-89.15,281.3-76.01,425.38,8.24,81.66,31.09,165.98,86.24,228.79,4.36,4.77,9.48,10.19,14.21,14.6,0,0,1.22,1.18,1.22,1.18.47.33.83.77-.52,3.11h0Z"/>
      <path class="cls-2" d="M830.78,966.16c-3.31-25.58-7.02-51.52-9.41-77.24-3.2-28.77-5.73-61.63-7.82-90.46-1.03-17.41-2.26-40.88-3.18-58.28-1.32-34.85-2.4-75.3-2.67-110.21-.57-129.51,5.37-259.49,19.22-388.27,2.03-20.06,5.06-44.32,7.55-64.36,1.35-10.16,3.96-28.65,5.33-38.51-12.08,146.05-21.36,292.77-22.58,439.34-.42,55.06.28,113.08,2.35,168.1,2.02,51.42,5.25,103.56,9.82,154.86,1.88,21.47,4.53,42.87,6.65,64.33,0,0-5.26.69-5.26.69h0Z"/>
      <path class="cls-2" d="M934.71,956.43c77.35-79.43,98.67-197.46,102.94-304.5,3.57-148.65-28.15-306.42-103.14-435.8-5.63-9.53-12.24-19.86-18.49-28.99-11.78-16.95-24.65-33.2-38.8-48.3,14.97,14.28,28.51,30.19,41,46.72,6.66,8.93,13.72,19.04,19.66,28.5,102.97,163.66,137.66,416.94,82.27,602.29-16.35,52.94-41.89,104.62-82.45,143.2,0,0-3-3.11-3-3.11h0Z"/>
      <path class="cls-2" d="M1085.82,180.51c-24.99,29.48-76.21,45.04-113.01,53.37-106.85,22.65-231.92,16.61-330.79-32.38-11.71-5.92-23.17-12.55-34.03-19.92,0,0,3.7-5.65,3.7-5.65,10.87,6.81,22.18,13.08,33.77,18.58,99.01,46.36,219.38,52.99,325.76,31.95,34.39-7.58,70.98-17.88,99.43-39.2,3.98-3.1,7.72-6.49,10.95-10.26l4.23,3.51h0Z"/>
      <path class="cls-2" d="M1205,783.41c-11.29,7.89-23.74,13.8-36.45,18.88-16.24,6.45-33.02,11.51-49.89,15.8-160.43,39.65-442.34,42.1-594.36-24.08-14.18-6.39-27.99-13.77-40.83-22.73l3.59-5.21c17.36,11.45,36.51,20.4,56.07,27.6,154.21,55.46,414.09,54.59,573.78,17.35,18.56-4.49,36.85-9.89,54.51-17.04,10.34-4.31,20.82-9.33,30.02-15.66,0,0,3.57,5.09,3.57,5.09h0Z"/>
      <path class="cls-2" d="M1241.62,358.22c-4.79,3.65-10.79,7.89-15.8,11.21-6.89,4.43-14.93,9.27-22.17,13.11-175.78,92.64-533.77,108.94-694.58-19.47-13.38-10.87-25.72-23.1-36.43-36.7l6.36-5c10.38,12.99,22.35,24.71,35.37,35.14,6.22,5.12,13.57,10.21,20.25,14.73,164.34,108.08,507.84,93.78,676.42-1.51,0,0,2.72-1.57,2.72-1.57l2.67-1.66,5.33-3.32,5.2-3.49c3.79-2.46,6.69-4.79,10.18-7.29,0,0,4.49,5.83,4.49,5.83h0Z"/>
      <path class="cls-2" d="M1278.81,580.94c-19.33,29.69-65.32,47.13-97.98,57.93-184.03,57.4-531.51,61.11-700.23-37.46-24.73-14.87-47.87-33.46-64.15-57.56,0,0,4.55-3.14,4.55-3.14,16.35,22.81,39.07,40.48,63.31,54.4,152.14,84.25,413.62,86.3,583.86,61.86,55.81-8.82,112.24-19.88,163.37-44.58,8.34-4.22,16.46-8.94,23.98-14.47,7.48-5.5,14.35-11.89,19.37-19.49l3.92,2.51h0Z"/>
      <g>
        <path class="cls-2" d="M782.4,139.73c.08.05.17.06.26.07.45.05.91.09,1.36-.08.18-.07.39-.23.38-.47,0-.16-.1-.28-.21-.36-.14-.11-.3-.19-.46-.22-.07-.17-.14-.34-.29-.36-.26-.35-.73-.32-1.09-.1-.15.09-.31.24-.35.45-.04.18.02.35.07.51.07.22.16.47.33.57Z"/>
        <path class="cls-2" d="M926.83,123.2c1.33.78,1.31,3.06-.03,3.82,4.11-.93,8.73-1.79,12.31.45,1.32.83,2.65,2.1,4.17,1.75,1.23-.28,2.33-1.63,3.5-1.14.89.37,1.15,1.63,2.06,1.96.9.33,1.9-.62,1.84-1.58-.05-.96-.86-1.74-1.77-2.05-.9-.32-1.89-.26-2.84-.21-.63.04-1.26.07-1.89.11-.88.05-1.86.06-2.5-.55s-.31-2.02.56-1.93c-2.94-1.64-6.56-.4-9.93-.31-.57.02-1.24-.07-1.5-.57-.17-.33-.09-.73-.22-1.07-.41-1.15-2.11-.61-3.32-.69-1.13-.07-2.07-.86-2.99-1.53-1.22-.9-5.22-1.67-3.85.99,1.15,2.23,4.65,1.52,6.39,2.55Z"/>
        <path class="cls-2" d="M998.63,183.52c1,.66,2.3.64,3.49.48,1.16-.16,2.52-.39,3.36.43.81.79.77,2.28,1.74,2.87.82.49,1.85.05,2.76-.24s2.18-.26,2.5.64c.1.27.08.58.06.87-.06.73-.12,1.5.22,2.14.34.64,1.28,1.02,1.82.54.29-.25.39-.67.66-.94.71-.73,1.9-.09,2.88.17,1.66.44,3.53-.5,4.33-2.02.8-1.52.58-3.47-.37-4.9-1.11-1.65-3.13-2.74-3.62-4.67-.09-.37-.13-.77-.37-1.07-.22-.27-.56-.4-.88-.5-1.86-.62-7.94-2.19-9.58-.51-.67.69-.08,2.19-.49,3.08-.54,1.15-1.77,1.87-3.04,1.72-.87-.1-1.65-.58-2.41-1.01-1.17-.65-2.8-1.14-3.71-.16-.81.88-.34,2.43.66,3.09Z"/>
        <path class="cls-2" d="M1021.13,154.7c3.63,2.08,8.01,2.43,11.84,4.11,2.57,1.13,4.87,2.87,6.66,5.03.94,1.13,1.77,2.41,3.04,3.16.94.56,2.04.77,3.09,1.04,2.6.67,5.07,1.78,7.53,2.87,3.72,1.66,7.44,3.33,11.16,4.99,1.96.88,3.94,1.76,5.67,3.04,1.97,1.46,3.55,3.37,5.3,5.08,2.51,2.45,5.39,4.51,8.53,6.08,3.67,1.84,8.01,3.32,9.84,6.99.64,1.29.91,2.76,1.62,4.01.81,1.43,2.21,2.52,3.79,2.95.4.11.82.18,1.22.08.9-.23,1.4-1.28,1.29-2.21s-.66-1.73-1.23-2.47c-5.8-7.46-15.08-11.31-21.88-17.87-1.6-1.55-3.1-3.27-5.06-4.33-2.02-1.09-4.35-1.39-6.54-2.08-6.23-1.97-10.96-7-16.7-10.11-3.4-1.84-7.17-3.01-10.37-5.17-2.67-1.8-4.85-4.23-7.4-6.2-4.34-3.34-9.71-5.4-14.96-6.83-2.83-.77-4.11.22-2.07,2.73,1.6,1.97,3.41,3.82,5.62,5.09Z"/>
        <path class="cls-2" d="M1055.27,173.89c-.54-.24-1.14-.48-1.72-.33-2.42.65,3.57,6,4.32,6.82.46.5,1.01,1.04,1.68,1,.62-.04,1.09-.54,1.67-.76,1.15-.43,2.42.39,3.09,1.42.67,1.03.98,2.25,1.63,3.29.98,1.55,2.63,2.52,4.24,3.38,2.4,1.29,4.85,2.48,7.35,3.56,1.53.66,3.15,1.3,4.81,1.16.24-.02.51-.07.67-.25.38-.41-.05-1.05-.47-1.43-8.04-7.39-17.3-13.45-27.28-17.86Z"/>
        <path class="cls-2" d="M750.2,156.78c1.01.07,1.4,1.6,2.04,2.57.88,1.35,1.85.37,2.79.15.93-.23,2.27.48,2.89-1.76.52-1.89,1.62-2.26,3.03-3.1,1.82-1.09,4.15-.54,5.6-2.36.2-.25.38-.57.39-.92,0-.34-.15-.63-.32-.89-.5-.79-1.1-.99-1.87-1.26-1.12-.39-2.42-.29-3.5-.8-1-.47-1.93-1.38-2.97-1.7-1.02-.32-1.65.36-2.7.24-.75-.09-3.58-1.25-3.25-.74.72,1.14.2,2,.04,2.79-.27,1.31.12,1.61-1.52,3.33-.7.73-1.15,1.29-1.74,2.17-.31.47-.68,1.63-.41,2.09.3.53.97.15,1.49.19Z"/>
        <path class="cls-2" d="M766.74,143.77c.06.07.12.15.2.17.13.04.27-.07.39-.14.78-.44,1.6.34,2.43.16,0,.44.18.86.46,1.1.35.3.85.29,1.21-.04.36-.33.55-.98.4-1.49.32.18.65.35,1.01.36.36.01.75-.18.94-.59.15-.32.16-.72.29-1.06s.54-.56.69-.26c.07.15.04.34.04.52-.02.82.71,1.45,1.31,1.12.41-.22.69-.77,1.1-.98.28-.15.6-.13.88-.28.28-.15.52-.61.35-.91-.15-.26-.56-.37-.44-.67.03-.09.11-.15.19-.19.37-.19.83-.26,1.02-.71.22-.5-.1-1.1-.51-1.25s-.85,0-1.28.1c-.73.15-1.47.1-2.17-.15-.55-.2-1.17-.5-1.67-.08-.81.67-1.54,1.9-2.44,2.26-1.58.64-3.17,1.28-4.75,1.93-.07.03-.15.06-.18.15-.06.13.03.28.11.38.15.18.29.37.44.55Z"/>
        <path class="cls-2" d="M772.35,148.78c.15.03.3.03.44-.06.12-.08.21-.22.29-.35.23-.36,1.68-1.95.99-2.24-.13-.05-.27-.03-.4,0-.47.12-.91.42-1.38.47-.19.02-.38,0-.57.05-.19.04-.38.16-.48.38-.11.27-.05.59.06.84.22.48.6.82,1.03.91Z"/>
        <path class="cls-2" d="M778.48,146.71c-.17.1-.15.42-.05.6.71,1.34-.72.5-1.23,1.12-.29.34-.44.84-.47,1.32-.02.33.01.68.19.91.39.51,1.18.09,1.6.55.11.12.18.29.3.39.13.1.29.11.45.11.77.02,1.54,0,2.32-.04.13,0,.26-.02.37-.09.2-.13.31-.43.45-.66.14-.23.42-.41.57-.22.27.63.55,1.26.82,1.9-.1.26-.4.25-.58.09s-.3-.41-.51-.49c-.33-.14-.72.25-.78.7-.07.45.13.89.41,1.14.28.24.64.32.98.35,1.27.11,2.56-.37,3.84-.66,2.38-.55,4.8-.49,7.13,0,.76.16,1.58.35,2.3-.11.64-.4,1.07-1.25,1.32-2.11.25-.84.29-1.96-.29-2.36-.66-.46-1.47.37-2.24.5-.79.12-1.52-.57-1.82-1.48-.3-.91-.24-2-.03-3-.47.02-.94-.21-1.26-.63-.04.47-.39.83-.74,1.01-.35.18-.73.26-1.05.53s-.55.83-.36,1.22c.15.31.47.37.75.46.28.09.58.36.53.73-.07.47-.57.54-.93.49.21.56.77.82,1.24.58.02.36-.19.72-.46.89-.26.16-.56.17-.84.12-.59-.11-1.13-.45-1.66-.78-.54-.34-1.08-.68-1.63-1.02-.32-.2-.64-.4-.92-.68-.23-.23-.43-.51-.67-.72-.44-.39-1-.54-1.55-.49-.11.01-.22.03-.31-.05-.16-.14-.09-.48-.14-.73-.08-.44-.51-.56-.86-.6-.75-.09-1.5-.18-2.25-.27.2.05.32.35.24.6-.07.25-.33.39-.51.29-.07-.04-.13-.11-.21-.11-.14.02-.19.26-.26.43-.21.53-.8.44-1.22.26Z"/>
        <path class="cls-2" d="M790.22,141.03c.24-.09.5,0,.74-.1.24-.09.46-.5.29-.72-.06-.08-.16-.11-.26-.13-.71-.14-6.02-1.14-5.95.84,0,.18.09.34.17.48.26.46.51.92.77,1.37.05.09.1.18.17.24.11.1.26.1.4.1,1.02-.02,2.04-.27,3.05-.52.12-.03.25-.07.33-.18.2-.27.03-.67.04-1.03,0-.07.01-.14.04-.2.04-.08.12-.13.19-.15Z"/>
        <path class="cls-2" d="M786.45,136.86c-.03.4.18.75.44.93.26.18.57.22.87.25.67.07,1.34.1,2.02.11.78,0,1.68-.1,2.18-.92-.29.1-.54-.2-.69-.51s-.25-.69-.49-.88c-.15-.12-.34-.15-.53-.17-1.19-.16-2.5-.28-3.51.66-.02.02-.58-.14-.68-.12-.25.04-.5.17-.71.38-.31.3-.69.78-.95,1.14.36.09.71-.26,1-.53.31-.29.73-.55,1.04-.32Z"/>
        <path class="cls-2" d="M802.1,136.17c.34.07.7.08,1.05.03-.33.23-.69.5-.83.95.64.27,1.39-.21,2.04.02.03.01.06.02.08.06.02.04.01.1,0,.15-.06.31-.11.63-.17.94-.54.02-1.14-.25-1.59.19-.06.06-.12.14-.13.23-.05.27.22.41.42.44,1.06.16,2.12.32,3.17.49.28.04.56.09.82.21.19.09.36.23.54.31.56.26,1.25.09,1.75.5.25.21.42.54.6.86.4.74.89,1.49,1.6,1.61.25.04.53-.01.73-.24.28-.33.29-.91.1-1.3-.19-.39-.52-.61-.86-.76-.17-.08-.36-.15-.48-.33-.12-.17-.15-.49,0-.65.17-.19.49-.13.55-.4.03-.14-.04-.27-.12-.34s-.19-.11-.28-.18c-.24-.19-.32-.58-.48-.87-.31-.55-.98-.69-1.46-.3-.05.04-.11.09-.17.12-.21.1-.42-.13-.5-.39-.08-.26-.08-.56-.16-.82-.1-.35-.35-.61-.64-.67-.37-.08-.75.14-1.12.3-.37.16-.81.26-1.09-.04-.18-.19-.26-.49-.39-.75-.5-1.02-1.37-.83-2.2-.71-.34.05-.69.1-.98.35-.16.14-.31.37-.27.6.04.26.27.36.47.4Z"/>
        <path class="cls-2" d="M795.74,138.61c.09.1.19.2.3.26.13.06.27.08.41.08.26,0,.52-.02.78-.08.16-.03.32-.08.46-.2s.24-.33.23-.53c-.02-.26-.22-.41-.4-.5s-.39-.15-.51-.35c-.14-.22-.12-.55-.2-.82-.1-.32-.33-.53-.58-.62-.22-.08-.6-.21-.72.14-.05.15-.01.37-.06.54-.05.18-.14.34-.19.52-.08.3-.04.62.06.89.1.27.26.49.43.68Z"/>
        <path class="cls-2" d="M799.22,145.67c.48.86,1.03,1.73,1.82,2.09.33.15.68.2,1.03.22,1.52.11,3.09-.21,4.59.05.03.16-.05.34-.16.44-.11.1-.24.14-.37.16-.27.05-.53.07-.8.05-.09,0-.18-.02-.26.03-.18.1-.24.4-.26.64l-.14,1.29c-.01.12-.02.24.02.34.05.1.15.14.24.16.89.26,1.82.38,2.75.36.29,0,.61-.05.81-.32.08-.1.13-.23.18-.36.12-.3.25-.61.37-.91.37-.91.74-1.83.96-2.8.16-.69.2-1.54-.21-1.96-.34-.35-.86-.27-1.3-.09-.44.18-.89.44-1.34.38-.55-.07-.96-.6-1.39-1.04s-.99-.81-1.51-.53c-.04.02-.08.05-.11.09-.13.16-.07.45.07.57.14.12.32.12.5.15.2.03.4.11.58.22.16.1.32.23.42.43s.13.46.06.69c-.11.31-.4.46-.65.41-.25-.05-.45-.26-.62-.5-.16-.24-.29-.51-.46-.74-.15-.21-.35-.39-.58-.4-.23-.01-.49.2-.52.49-.03.24.09.46.23.62s.29.29.38.5c.05.12.07.26.02.39-.03.08-.09.14-.16.18-.19.12-.42.1-.6-.01-.18-.11-.33-.3-.46-.49-.19-.27-.37-.56-.53-.87-.27-.52-.5-1.1-.86-1.52-.57-.68-2.56-1.32-2.17.57.08.39.26.71.44,1.03Z"/>
        <path class="cls-2" d="M817.84,140.42c-.63-.19-1.19,0-1.58.78-.3.6-.11,1.43.24,1.86.33.4.76.62,1.13.97.18.17.35.51.19.74-.14.2-.43.14-.54.37-.06.11-.04.26,0,.37.13.28.43.33.69.34.94.04,1.88,0,2.83-.11.09-.01.19-.03.25-.13.03-.05.04-.11.04-.17.08-.6.16-1.19.23-1.79.02-.16.04-.34-.05-.45-.06-.07-.14-.09-.23-.1-.32-.02-.64.06-.95.01-.31-.04-.64-.25-.72-.64-.03-.14-.02-.28-.06-.41-.08-.32-.41-.47-.65-.3-.03.03-.07.06-.11.07-.14.05-.24-.16-.24-.35,0-.18.06-.37.03-.55-.05-.3-.3-.43-.53-.5Z"/>
        <path class="cls-2" d="M789.18,172.51c.72-.16,1.44.12,2.16.21.72.1,1.6-.08,1.92-.78-1.48-.89-2.96-1.77-4.44-2.66-.61-.37-1.24-.75-1.69-1.33-.38-.5-.61-1.14-.63-1.79-.01-.39.05-.79,0-1.17-.19-1.29-1.6-2.31-1.25-3.57.37-1.32,2.39-1.54,2.65-2.88.14-.73-.36-1.45-.99-1.76s-1.36-.31-2.06-.31c-.37,0-.77.01-1.09.24-.66.47-.53,1.51-.32,2.32-.85-.59-1.89-.87-2.91-.79-.18.01-.38.05-.52.17-.36.3-.19.9,0,1.34.18.39.35.78.53,1.16.33.72.66,1.5.51,2.29-.15.79-1.02,1.47-1.67,1.07-.46-.29-.57-.95-.52-1.52.05-.57.21-1.15.1-1.71-.14-.72-.71-1.27-1.35-1.55-.64-.28-1.34-.34-2.04-.39.1.48.29.93.57,1.31-.71.06-1.41.12-2.12.19-.34.03-.72.05-.97-.19-.24-.23-.27-.61-.38-.93-.34-1.08-1.73-1.59-2.65-.99-.3.2-.55.49-.86.68-.31.19-.74.24-.99-.02-.24-.62.43-1.47-.02-1.93-.12-.13-.3-.18-.47-.21l-3.47.38c-1.42.23-2.79.86-3.93,1.8-.43.36-.85.78-1.04,1.32s-.1,1.23.34,1.56c.25.19.58.24.89.28,1.02.14,2.04.28,3.06.42-.31.62-1.12.69-1.76.53-.39-.1-.77-.25-1.17-.22-.4.03-.82.32-.86.74-.04.5.45.84.89,1.02,2.92,1.18,6.31.44,9.23,1.62.14.06.3.15.31.3.01.22-.25.32-.46.34-2.29.23-4.61-.39-6.88.04-.42.08-.95.39-.84.82.04.14.15.25.25.35.97.95,2.04,1.96,3.36,2.06.4.03.8-.02,1.2.05.39.07.8.3.92.7.08.26.04.54.1.8.17.72,1,.96,1.7,1.07,2.28.37,4.56.73,6.87.8.72.02,1.46.01,2.13-.27,1.09-.46,2.04-1.62,3.18-1.38.41.09.76.35,1.12.58,1.71,1.12,3.74,1.59,5.72,2.03.27.06.56.12.83.04.27-.08.51-.36.47-.65-.05-.33-.4-.48-.68-.63-.28-.15-.55-.51-.37-.78.08-.12.23-.18.36-.21Z"/>
        <path class="cls-2" d="M797.86,158.98c.19.18.46.13.71.11.28-.03.55-.01.82.04.08.01.17.04.21.12.06.1.04.23.02.36-.09.52-.18,1.05-.27,1.57-.81.03-1.61-.24-2.29-.75-.42-.31-.82-.73-1.32-.74-.16,0-.35.05-.45.23-.11.19-.08.43-.06.65.06.47.12.94.18,1.4,2.03.27,3.9,1.65,5.06,3.74.42.76.84,1.68,1.57,1.8.29-.35.09-1.09.42-1.37.16-.14.37-.09.56-.06.69.1,1.42-.32,1.9-1.02.48-.7.71-1.64.67-2.54-.34.19-.76.03-.93-.36-.18-.39-.1-.96.18-1.28l-1.91-.12c-.09-.3.11-.66.35-.83.23-.17.5-.23.73-.4.48-.36.69-1.22.44-1.82-.03-.08-.07-.15-.13-.19-.06-.04-.12-.05-.19-.05-1.54-.17-3.09-.33-4.63-.51-.44-.05-.78,0-1.17.34-.38.33-.98,1.2-.45,1.69Z"/>
        <path class="cls-2" d="M815.13,162.15c.21-.08.42.03.6.17.18.14.34.32.54.4.16.06.33.05.5.03.42-.04.84-.14,1.25-.29.21-.08.43-.17.59-.36.24-.27.34-.68.52-1,.41-.71,1.14-.91,1.76-1.29.2-.12.39-.27.5-.51.11-.24.1-.59-.07-.73-.05-.04-.12-.06-.18-.08-.81-.26-1.63-.45-2.46-.57-.82-.12-1.66-.17-2.42-.54-.34-.17-.68-.4-1.05-.43-.37-.03-.82.24-.91.72-.17.85-.22.78-.88.78-.32,0-.66.07-.89.41-.59.83-.19,2.49.11,3.3.14.39.33.77.34,1.21.01.55-.26,1.07-.32,1.62-.02.19-.01.41.1.54.05.06.12.09.2.11.34.09.7-.12,1.02-.34.37-.25.73-.52,1.08-.82.19-.16.38-.33.49-.59.11-.25.11-.6-.06-.76-.18-.17-.48-.09-.61-.32-.12-.22.05-.57.26-.65Z"/>
        <path class="cls-2" d="M811.65,153.15c.07.4.48.44.8.47.4.04.79.22,1.11.51.3.27.55.64.88.87.34.24.75.3,1.15.37.27.04.59.07.8-.18.16-.19.22-.48.26-.74.07-.42.14-.85.12-1.28-.02-.42-.16-.85-.43-1.07-.19-.15-.43-.21-.57-.43-.11-.17-.14-.42-.26-.6-.14-.21-.38-.26-.61-.3-.36-.06-.8-.08-1.12.24-.27.26-.34.73-.59,1.01-.25.27-.6.25-.91.33-.31.08-.68.4-.61.8Z"/>
        <path class="cls-2" d="M822.99,155.42c-.26.46-.11,1.16.22,1.56s.77.57,1.19.72c.7.26,1.39.51,2.09.77.53.2,1.13.38,1.59,0,.51-.42.8-1.46,1.39-1.32.35.08.54.56.81.87.45.52,1.11.54,1.71.53,1.7-.02,3.39-.04,5.09-.06.31,0,.64-.01.91-.2.25-.17.42-.48.65-.71s.55-.36.78-.15c.19.17.25.51.4.73.25.37.69.38,1.07.35.91-.06,1.81-.13,2.72-.19.44-.03.9-.07,1.28-.35.38-.28.65-.9.5-1.44-.1-.37-.39-.69-.34-1.07.02-.13.07-.25.09-.38.07-.44-.24-.81-.54-1.04-1.81-1.36-4.07-.92-6.06-.15-1.99.76-4,1.82-6.07,1.55-1.44-.19-2.83-1.02-4.27-.88-.19.02-.38.05-.56-.06-.17-.1-.29-.4-.18-.6.14-.25.58-.31.47-.59-.37-.17-.78-.11-1.17-.07-.39.04-.81.06-1.15-.19-.35-.25-.57-.85-.37-1.29.79-.02,1.58-.07,2.37-.15-.21-.45-.65-.62-1.05-.67-.4-.05-.82-.04-1.18-.28-.36-.24-.61-.88-.38-1.31-.73.65-1.63,1.08-2.52.9-1.16-.23-2.06-1.41-3.12-2.09-.82-.52-2.32-1.1-3.15-.36-.57.51-.84,1.76-.06,2.18.67.36,1.42-.08,2.1.17.64.23,1.14,1.01,1.8,1.12.17.03.35,0,.49-.11.12-.1.21-.25.33-.34.35-.27.81.04,1.05.48s.33.97.56,1.42c.22.44.57.78.95.94.11.04.22.08.31.18.2.24.07.7-.13.93-.21.23-.48.36-.65.65Z"/>
        <path class="cls-2" d="M814.44,131.38c.44.31,1.01.05,1.53-.05.2-.04.44-.02.51.21.09.27-.16.58-.39.61s-.45-.1-.67-.14c-.23-.05-.51.03-.61.31-.13.39.21.71.5.86.26.14.6.26.83,0,.16-.19.24-.56.45-.59.16-.02.27.18.31.37.04.19.04.41.13.58.14.26.44.27.68.17.24-.1.46-.3.71-.39.33-.13.68-.06,1.02.02.91.21,1.81.5,2.7.84-.78.5-1.65.1-2.5.06-.72-.04-1.45.21-2.09.7-.14.11-.3.27-.3.48,0,.2.14.33.27.42.43.32.9.55,1.39.69.28.08.63.25.58.62-.04.3-.31.44-.53.54-.22.1-.49.34-.44.63.04.2.21.29.37.35,1.09.41,2.19.8,3.29,1.18.29-.27.27-.8.31-1.24.04-.44.34-.99.64-.83.11.06.17.19.24.31.4.73.96,1.32,1.6,1.68.03-.46,0-.92-.07-1.36.3.19.59.38.89.57.16-.38.16-.85,0-1.2-.08-.18-.2-.34-.2-.56,0-.37.36-.57.65-.66.31.01.12.74.34,1,.06.07.15.1.24.11.9.07,1.46-1.5,2.35-1.79.34-.11.68-.03,1.01.03.33.06.7.09,1.01-.12s.54-.73.38-1.11c-.11-.25-.34-.36-.55-.44-.81-.31-1.64-.51-2.49-.61-.2-.02-.41-.05-.57-.19-.16-.15-.23-.47-.1-.67.09-.14.24-.18.36-.28.23-.2.29-.68.11-.93-.16-.22-.46-.28-.53-.57-.05-.19.02-.4.05-.6.08-.65-.41-1.26-.91-1.12-.29.39.24,1.01.04,1.48-.14.33-.55.28-.71,0-.16-.28-.16-.68-.17-1.04,0-.36-.05-.77-.26-.98-.16-.17-.39-.19-.61-.21-.59-.04-1.19-.09-1.78-.13-.28-.02-.57-.05-.79-.26-.28-.28-.34-.78-.45-1.22-.3-1.22-1.08-2.14-1.97-2.68-.89-.54-1.9-.73-2.91-.83.01.49.38.79.72.97s.74.32.92.73l-2.02-.28c-.25-.04-.51-.07-.76.02-.25.09-.49.34-.55.66-.08.46.25.85.59.94.34.09.71,0,1.07-.02.36,0,.75.12.91.52.03.08.05.19.02.27-.03.07-.08.11-.13.15-.46.3-1.01.15-1.45-.12-.45-.26-.87-.63-1.36-.74-.34-.08-.79.04-.93.47-.13.39.06.82.33,1.02.27.2.6.23.9.32.41.12.79.36,1.11.68.1.1.2.23.2.39,0,.3-.31.46-.54.48-.77.07-1.54-.25-2.11-.87-.26-.29-.8-.59-.85.12-.03.51.37,1.26.57,1.66.12.25.27.49.47.63Z"/>
        <path class="cls-2" d="M825.15,122.72c.8-.06,1.6-.13,2.4-.19.14-.01.29-.02.4.07.12.09.17.33.06.46-.07.09-.17.1-.27.11-.21.02-.43.09-.63.19-.14.07-.29.2-.29.38,0,.17.13.28.25.33.37.18.78.21,1.18.1,1.06-.3,1.94-.67,3-1,.27.34.32.94.12,1.39-1.35-.29-2.81.04-4.06.91.91-.1,1.81.05,2.65.43-.38.41-.94.52-1.36.26.38,1.66,2.05,2.14,3.4,1.72.66-.21,1.4-.55,1.96-.11.48.38.63,1.22,1.13,1.57.72.5,1.65-.33,2.48-.27.36.02.69.21,1.02.35,2.02.84,4.3-.01,6.41-.86-.53,1.3-1.64,2.09-2.74,2.33-1.1.24-2.2.02-3.28-.2,0,1.51.93,2.84,2.08,3.01-.63.63-1.53.6-2.16.09-.63-.51-1.01-1.41-1.18-2.36-.06-.34-.11-.72-.32-.93-.15-.15-.35-.18-.54-.21-1.37-.2-2.74-.36-4.11-.48.16.32.22.72.18,1.12-.21,0-.43.02-.64.03-.25.47.18.99.57,1.18.68.34,1.41.56,2,1.09.59.53,1.02,1.51.77,2.44-.25.95-1.09,1.46-1.85,1.61-.76.15-1.54.07-2.27.38s-1.44,1.24-1.31,2.19c.91-.07,1.82-.22,2.72-.47-.03,1.9.88,3.69,2.23,4.36-1.33.46-2.78.03-3.75-1.1-.76-.89-1.48-2.29-2.52-1.97-.13,1.51.48,3.01,1.49,3.68-.5.57-1.22.65-1.86.55-.64-.09-1.26-.33-1.91-.26-.65.07-1.35.55-1.55,1.36-.19.81.47,1.75,1.05,1.34.34-.24.52-.81.88-.99.6-.3,1.02.62,1.43,1.19.81,1.1,2.2,1,3.42.92,2.43-.18,4.85-.02,7.22.47.23.05.47.1.64.29.22.24.29.64.46.94.34.65,1.03.8,1.66.76,1.31-.09,2.63-.84,3.6-2.06.18-.23.36-.5.36-.81,0-.72-.8-.77-1.36-.64s-1.37-.19-1.17-.89c.06-.21.21-.37.37-.48.6-.44,1.33-.42,1.97-.76s1.19-1.43.76-2.06c.73.1,1.46.2,2.18.3.24.03.48.06.71,0,.35-.1.65-.4.93-.69.68-.69,1.36-1.39,2.03-2.08.11-.11.22-.23.27-.39.23-.75-.91-.73-1.23-1.37.55-.31,1.14-.52,1.73-.6.03-1.04-1.02-1.35-1.82-1.36,1.63-.57,3.33-.74,4.96-.47.62.1,1.26.26,1.87.02.74-.28,1.31-1.08,1.91-1.75,3.42-3.81,8.33-3.59,12.45-5.83-1.36-.2-2.73-.41-4.09-.61.84-.82,1.96-.67,2.98-.61,2.25.13,4.56-.42,6.69-1.59.17-.09.35-.21.45-.42.21-.46-.14-.97-.49-1.19-1.22-.78-2.86-.6-3.78-1.88-.25-.36-.44-.81-.77-1.04-.35-.23-.78-.16-1.19-.08-1.35.27-2.7.54-4.06.81.43-.26.44-1.1.13-1.51s-.79-.5-1.24-.58c-3.16-.52-6.31-1.04-9.47-1.55-.23-.04-.49-.07-.7.1-.17.13-.27.36-.42.52-.36.36-.86.19-1.2-.13-.34-.32-.6-.77-.98-1.01-.53-.34-1.18-.21-1.79-.11-1.93.32-3.88.24-5.75-.23-.63-.16-1.35-.33-1.88.21-.26.26-.43.67-.72.86-.69.43-1.35-.65-2.09-.53-.92.15-1.17,1.87-1.96,2.55-.93.79-2.03-.15-2.86-.96-.83-.81-2.17-1.42-2.85-.29-.11.18-.18.38-.32.53-.18.2-.43.23-.66.25-1.6.16-3.11-.32-4.7.03-.58.12-1.16.25-1.74.37-.72.15-1.47.32-2.09.87-.17.15-.35.39-.31.64.04.33.38.38.65.36Z"/>
        <path class="cls-2" d="M880.89,131.73c-2.16,1.53-5.21-.67-7.75.06-.85.24-1.56.8-2.26,1.34-2.34,1.83-4.69,3.66-7.03,5.49,1.66-.17,3.72-.31,5.38-.48.23,1.16.39,2.55-.48,3.35-.46.43-1.12.58-1.74.73-2.03.48-4.02,1.09-5.96,1.84-.41.16-.83.33-1.13.65-.3.32-.46.82-.25,1.2,3.31,1.47,6.74,2.93,10.36,2.79-1.44.81-2.36,2.46-2.27,4.11,7.69-2.42,16.31-1.75,23.54,1.82,7.23,3.58,12.99,10.02,15.73,17.6,1.34-1.53-.52-4.81,1.35-5.6.64-.27,1.38,0,2.01.3,2.32,1.09,4.48,2.54,6.37,4.27-1.86.15-3.72.29-5.59.44,0,1.98,1.23,3.91,3.04,4.72,1.8.81,4.07.46,5.55-.85.42-.38.8-.83,1.33-1.04,1.26-.48,2.54.71,3.1,1.94.56,1.22.85,2.67,1.91,3.5-1.62.56-2.99,1.77-3.76,3.3,1.63,1.25,4.78-1.36,5.73.47.21.41.17.89.13,1.35-.21,2.25-.43,4.5-.64,6.76,1.75-1.07,3.5-2.15,5.25-3.22-.74,1.83-1.48,3.66-2.22,5.49,1.71-.44,3.43-.87,5.14-1.31-.84,2.53.3,5.58,2.6,6.94.5-1.31,1.7-2.32,3.07-2.59,1.29.82-.69,2.82-.23,4.28.52,1.63,3.07.85,4.56,1.69,1.01.57,1.37,1.81,1.98,2.8,1.17,1.89,3.32,2.89,5.35,3.79,3.53,1.56,7.06,3.12,10.59,4.68.85.38,1.83.75,2.68.37.71-.32,1.18-1.13,1.96-1.21.39-.04.78.13,1.12.33,1.21.71,2.1,1.84,3.11,2.81,1.01.97,2.28,1.83,3.68,1.79s2.79-1.4,2.39-2.74c-.22-.74-.88-1.25-1.41-1.82-1.53-1.61-2.15-4.03-1.58-6.18-2.09.05-4.02-1.84-4.02-3.93,0-1.09.45-2.24-.02-3.22-.33-.71-1.05-1.13-1.67-1.6-2.61-1.95-4.06-5.35-3.67-8.58.13-1.08.49-2.19,1.31-2.9s2.2-.85,2.95-.07c.29.3.47.7.75,1.02.97,1.11,2.95.75,3.86-.42s.95-2.8.65-4.25c-.69-3.36-3.06-6.33-6.19-7.74,5.39-.46,9.13-7.22,6.65-12.03-2.91.95-5.83,1.9-8.74,2.85-.46-.82-.7-1.76-.68-2.7-1.14.13-2.35.26-3.4-.21s-1.83-1.75-1.34-2.79c3.65.99,7.38,1.65,11.15,1.96-2.08-3.34-6.3-5.2-10.17-4.49-.33-2.47-3.08-4.31-5.49-3.67-1.63.43-3.5,1.73-4.74.59-.18-1.01,1.47-.99,2.39-1.45,1.62-.81.56-3.49-1.13-4.14-1.69-.65-3.66-.33-5.3-1.09-2.77-1.28-3.87-5.25-6.87-5.78-1.59-.28-3.18.55-4.79.55-1.62,0-3.41-1.81-2.37-3.05-5.57-.25-10.71-2.92-15.64-5.53-4.86-2.58-9.72-5.15-14.58-7.73-.58,1.08-.52,2.46.15,3.49-2.44.67-4.82-2.87-7.1-1.78-.8.39-1.31,1.28-2.16,1.53-.87.25-1.89-.39-2.03-1.28-.15-.89.61-1.83,1.51-1.87-2.83-1.49-6.08,1.49-9.27,1.3-1.24-.07-2.39-.63-3.62-.81-1.22-.19-2.7.15-3.21,1.27,1.26.08,2.32,1.36,2.15,2.62Z"/>
        <path class="cls-2" d="M1158.43,272.18c1.21,1.96,2.14,4.11,3.66,5.84,1.52,1.73,3.86,2.99,6.09,2.42,2.23-.57,3.69-3.59,2.2-5.34-.6-.71-1.51-1.07-2.17-1.72-.66-.65-.95-1.89-.2-2.43.65-.47,1.59-.07,2.35-.31-1.49-3.29-3.08-6.7-5.89-8.96-.94-.75-2.13-1.66-1.89-2.83.21-1.06,1.48-1.58,1.88-2.58.35-.88-.06-1.86-.47-2.72-2.06-4.33-4.29-8.86-8.22-11.61-2.68-1.87-6.08-2.87-8.01-5.51-.86-1.18-1.36-2.6-2.3-3.71-2.23-2.62-6.52-3.05-8.21-6.04-.75-1.33-.83-2.94-1.46-4.33-1.45-3.17-5.25-4.34-8.21-6.18-4.35-2.7-7.2-7.2-10.18-11.36-2.55-3.57-5.36-6.77-9.21-8.96-1.42-.81-8.37-4.55-8.33-.77,0,.5.27.96.57,1.35,1.2,1.57,3.04,2.48,4.61,3.68s2.98,3.02,2.64,4.97c-.38,2.19-2.82,4.36-1.53,6.16.65.91,1.91,1.04,2.99,1.33,3.69.98,6.33,4.92,5.85,8.7,1.58-.27,3.17.32,4.66.9,2.59,1,5.24,2.04,7.31,3.9.71.64,1.37,1.43,1.55,2.38.17.95-.29,2.06-1.21,2.34-.59.18-1.24,0-1.84.14-1.43.34-1.82,2.35-1.11,3.64.7,1.29,2.05,2.05,3.25,2.91,1.19.86,2.36,2.04,2.37,3.51,0,1.18-.75,2.37-.34,3.47.6,1.59,3.23,1.89,3.4,3.58.17,1.74-2.58,2.81-2.24,4.52.16.83,1,1.32,1.75,1.7,9.52,4.78,20.3,8.87,25.89,17.93Z"/>
        <path class="cls-2" d="M1190.97,312.53c-1.09-1.25-2.37-2.36-3.19-3.81-1.17-2.06-1.26-4.56-2.17-6.75-2.24-5.4-8.99-8.05-10.75-13.63-.43-1.37-.52-2.85-1.03-4.2-.51-1.35-1.61-2.64-3.04-2.73-.82-.05-1.61.29-2.41.51-1.68.45-3.52.3-5.11-.42-2.5-1.13-2.57-.8-4.16.96-1.18,1.3-2.96,2.09-4.73,2.02-.52-.02-1.06-.1-1.55.08-.84.31-1.23,1.29-1.27,2.18-.11,2.58,1.87,4.74,3.79,6.47,5.48,4.95,11.95,9.72,13.82,16.87.51,1.96.67,4.08,1.73,5.8,1.48,2.4,4.43,3.57,6,5.91,1.03,1.54,1.37,3.42,1.72,5.24.12.59.3,1.27.86,1.5.81.34,1.6-.57,1.86-1.41.26-.84.39-1.84,1.15-2.3,1.11-.67,2.43.44,3.2,1.48.77,1.04,1.88,2.27,3.1,1.86.29-.1.55-.29.76-.52,1.15-1.26.67-3.24,1.02-4.91.43-2.04,2.16-3.69,2.3-5.77.11-1.65-.83-3.2-1.92-4.45Z"/>
        <path class="cls-2" d="M1245.68,384.1c.99-1.43,1.98-3.25,1.53-4.93-3.16-11.8-3.36-19.4-9.8-28.31-2.78-3.84-4.68-9.91-7.15-13.96-2.08-3.42-4.25-7.61-5.96-11.23-1.78-3.79-4.42-7.45-6.81-10.89-3.76-5.41-5.77-10.54-9.7-15.83-5.43-7.31-9.61-14.61-15.34-21.68-4.65-5.73-9.29-11.46-13.94-17.2-.58-.72-1.17-1.92-1.83-2.56-1.47-1.41-3.67-2.79-5.71-2.72-1.69-1.11-4.15.53-4.4,2.53s1.04,3.91,2.61,5.18,3.44,2.13,5.02,3.39c2.44,1.95,4.08,4.88,4.47,7.98.15,1.19.17,2.52,1,3.38.98,1.03,2.63.93,3.97,1.41,1.93.68,3.19,2.54,4.01,4.42.82,1.88,1.36,3.9,2.52,5.59,1.1,1.59,2.69,2.77,4.18,4.01,4.62,3.84,8.64,8.75,10.06,14.59-1.89.39-3.82.57-5.75.55-.5,2.69.45,5.41,1.04,8.08,1.11,5.01.96,10.29-.43,15.22-.36,1.27-1.34,2.81-2.59,2.37-.45-.16-.77-.55-1.19-.79-.97-.54-2.28-.03-2.92.88s-.76,2.09-.71,3.21c.12,2.84,1.19,5.64,3,7.83,8.68,10.54,11.32,24.57,13.4,38.06.27,1.75.57,3.59,1.66,5,1.5,1.94,4.12,2.59,6.55,2.92,8.22,1.11,16.72,0,24.38-3.17,1.83-.76,3.69-1.7,4.82-3.32Z"/>
        <path class="cls-2" d="M1109.88,701.1c-5.33-4.44-12.37-6.22-18.28-9.86-8.1-4.98-14.53-13.62-23.96-14.85-2.31-.3-4.74-.13-6.89-1.04-7.86-3.34-4.34-15.02-5.73-23.45-2.16-13.12-18.57-18.97-31.67-16.72-13.1,2.25-24.79,9.71-37.77,12.58-12.98,2.88-29.53-1.14-33.54-13.81-.56-1.75-.89-3.68-2.16-5.01-1.75-1.82-4.61-1.84-7.13-1.74-10,.4-20.01.81-30.01,1.21l-13.08,1.8c-5.44.34-11.06-.82-16.28.75-3.89,1.17-7.19,3.75-10.92,5.34-7.81,3.34-17.45,1.88-23.92-3.61-6.47-5.49-9.48-14.77-7.45-23.01.55-2.23,1.44-4.45,1.25-6.74-.55-6.64-8.83-9.05-15.38-10.26-6.55-1.21-14.69-5.21-13.49-11.76.39-2.15,1.8-3.95,3.17-5.65,4.95-6.18,9.89-12.36,14.84-18.55-3.9-7.15-21.69-17-21.27-.01.2,8.14-10.44,13.02-17.79,16.54-11.63,5.57-25.08-1.64-35.89-8.67-10.65-6.93-21.77-14.48-27.16-25.99-6.86-14.65-2.73-31.95,2.91-47.11,5.12-13.78,11.49-27.73,11.78-42.27,34.68-10.96,90.47-35.92,100.95-41.51,15.32-8.17,29.19-49.28,29.19-49.28,0,0,1.28-8.43,1.79-11.74s2.81-6.64,6.13-5.87c3.32.77,6.89,0,9.45-1.53,2.55-1.53,3.57-2.3,5.11-1.28,1.53,1.02,1.53-.85.6-1.79-.94-.94-3.45-2-3.53-3.45-.09-1.45-1.11-4.09,3.53-9.15,2.3-2.51,5.53-5.66,8.6-5.62,3.06.04,5.23-1.15,5.02-2.6-.21-1.45-1.11-3.36-1.79-4.3-.68-.94-1.45-4.47.72-3.49s4.13,3.02,4.98,4.43c.85,1.4,2.89,1.53,3.79.81.89-.72,2.89-2.55,4.81-2.6,1.91-.04,2.89.09,3.66.68.77.6,1.49,2.34,0,3.11-1.49.77-5.28,2.55-5.62,3.45-.34.89-1.32,3.36-1.15,4.47s.72,2.43,1.74,2.38,4.92-4.3,5.89-5.32c.96-1.02,7.13-5.45,8.96-5.36,1.83.09,5.83-.6,6.89-2.34,1.06-1.74,1.7-3.83,1.19-4.94s-3.23-1.02-3.74-.47c-.51.55-2.17,2.89-3.4,2.85s-3.11-3.32-4-3.4c-.89-.09-6.43.3-6.43.3,0,0-3.28.09-3.87-2.3-.36-1.45-.09-4.94-.09-4.94,0,0,.43-2.51-1.49-2.55-1.91-.04-3.45.47-3.45.47,0,0-3.32-.16,2.47-2.98,1.74-.85,1.9-2.68-.47-3.53-2.26-.81-6.37-1.28-8.94-.64-1.09.27-5.1,1.51-9.66,5.53-1.43,1.26-3.36,3.53-4.04,3.96-.68.43-3.79,1.87-4.09.55s.51-7.66,2.04-8.89c1.53-1.23,3.02-1.74,3.87-1.79s10.04-6.04,10.77-6.55c.72-.51,4.26-3.06,8.6-2.98,4.34.09,18.17.3,18.17.3,0,0,5.32-.21,6.68-2.64,1.36-2.43,3.32-4.26,4.64-4.68,1.32-.43,3.83-2.09,4.04-2.09s1.28-1.23,2.21.55,1.02,3.11,0,3.96c-1.02.85-1.62,2.43-1.36,3.49.26,1.06,1.28,5.11-.26,6.77-1.53,1.66-4.17,3.87-4.17,3.87,0,0-2.13,1.4-1.87,2.3.26.89,1.83.72,2.98.72s2.64.26,1.62,1.32-2,.98-2.34,1.83.68,1.83,1.36,1.87c.68.04,3.83.09,4.3-.55.47-.64,1.32-2,1.87-1.66.55.34,1.44,2.07,3.32,1.79,1.23-.19,2.43.26,2.94-.43.51-.68,1.49-1.79,1.91-1.83,0,0,3.15,2.62,5.96,1.6,2.81-1.02,4.43-2.21,5.45-.68,1.02,1.53.77,4.34,2.64,5.28,1.87.94,4.51.09,4.34-2.13s-.17-3.06-1.36-4.43c-1.19-1.36-3.4-2.89-4.68-2.04s-1.96.85-1.87-1.19c.08-2.04-1.19-2.55-1.79-3.15-.6-.6-.43-1.02-.51-1.87-.09-.85-2.64-1.28-3.15-1.28s-3.74-3.23-4.43-4.77c-.68-1.53,0-6.72-1.11-6.64s-6.55-4.85-6.89-6.64c-.34-1.79-1.87-5.36-3.92-6.3-2.04-.94-5.28-1.02-7.4-2.64-2.13-1.62-4.09-3.23-4.51-3.83-.43-.6-3.57-2.04-10.13-4.17-6.55-2.13-10.81-7.32-10.81-7.32,0,0-4.34-7.4-4.85-8.43-.51-1.02-6.64-3.57-7.91-4.94-1.28-1.36-2.81-3.32-2.72-4.77.09-1.45-.6-2.98-1.53-2.04-.94.94-1.79,3.91-2.21,5.7s-1.96,5.36-3.66,6.21c-1.7.85-4.17,1.02-4.94.43-.77-.6-5.62-1.62-6.38-3.57-.77-1.96-.51-4.77-.51-4.77,0,0,.51-2.21-.77-3.4-1.28-1.19-2.98-.34-3.74-1.53-.77-1.19-1.79-3.49-4.09-4.34-2.3-.85-4.94.68-5.79.09s-1.96-2.13-1.96-2.13c0,0-1.19-2.47-3.91-2.38-2.72.09-3.83.68-5.28.09-1.45-.6-3.15-2.38-4.51-2.38s-2.98.43-3.32,1.11c-.34.68,2.21,2.64,1.62,3.66-.6,1.02-3.32,2.81-2.04,4.43,1.28,1.62,5.62,1.62,3.32,4.6-2.3,2.98-6.47,5.11-4.34,7.91,2.13,2.81,8.48,7.71,6.13,13.02-2.64,5.96-7.06,8.51-9.02,8.43-1.96-.09-2.72-.34-1.79,1.87.94,2.21,2.55,4,2.72,6.21.17,2.21,0,7.83-1.36,10.21-1.36,2.38-6.04,3.15-7.32,1.62-1.28-1.53-6.47-8.09-6.38-9.7.09-1.62.85-6.38,1.53-8.34s1.79-4.6-.26-5.53c-2.04-.94-6.98.6-10.98-.77-4-1.36-16.34-3.32-20.77-6.38-4.43-3.06-9.53-2.13-10.72-3.32-1.19-1.19-2.04-3.32-1.19-5.11s.09-5.28-2.04-6.47c-2.13-1.19-6.81-.85-2.55-6.89,4.26-6.04,9.02-10.21,11.49-11.4,2.47-1.19,5.36-3.66,4.09-4.94-1.28-1.28-6.64-4.43-2.98-4.09,3.66.34,6.47,1.19,7.32,1.87s.17.77,2.81-.43c2.64-1.19,5.19-1.96,7.23-1.87,2.04.09,3.66-1.02,2.3-2.3-1.36-1.28-2.13-1.7-2.89-2.04-.77-.34-1.62-2.64,1.19-1.53,2.81,1.11,4.51,2.21,5.62,1.7s2.55-1.96,4.26-2.72c1.7-.77,3.57,0,4.43-.09.85-.09,2.04-1.79,2.3-3.4.26-1.62,1.53-1.87,3.4-.94,1.87.94,3.57.94,3.57-.43s-1.07-2.38-1.68-3.15c-.61-.77-.19-2.64.75-3.15.94-.51-.77-2.55-2.55-2.72-1.79-.17-1.02-2.81.43-2.81s3.32.43,4.51.51c1.19.09,2.81-.6,3.4-1.11.6-.51,4-1.28,5.45,0,1.45,1.28,6.3,4.85,9.45,6.13,3.15,1.28,8.85,4.6,6.13,7.49-2.72,2.89-3.61.75-4.09,6.89-.09,1.11-.03.96-8.17,2.64-5.79,1.19-1.79,3.91.77,3.91s6.21-2.13,9.11-2.13,5.7.34,9.19,5.02c2.99,4.01,8.77,5.36,10.04,5.45,1.28.09,4.85.43,5.62.43s0-.77-1.62-1.7c-1.62-.94-2.04-3.15-.09-2.98,1.96.17,6.3,2.98,7.23,2.72.94-.26,2.89-.6,2.98-3.23.09-2.64-2.04-4.09-3.91-4.6-1.87-.51-10.89-4.68-11.66-6.81-.77-2.13-.68-4.17,3.06-3.74,3.74.43,5.7,1.02,7.15,2.72,1.45,1.7,3.91,3.57,5.36,3.66,1.45.09,1.7-1.28,1.62-1.96s.26-3.15.94-3.91c.68-.77.09-1.53-2.55-2.98-2.64-1.45-15.83-7.06-17.11-7.06s-.94-.94.09-2.55c1.02-1.62.51-2.21-1.87-3.49-2.38-1.28-5.36-2.13-7.66-1.11-2.3,1.02-3.49.17-3.74-1.11-.26-1.28-6.3-4.34-8.77-5.45-2.47-1.11-4.68-2.38-6.3-3.15-1.62-.77-2.21-3.4-4.68-2.89-2.47.51-2.89,2.21-3.83,3.23-.94,1.02-3.49-.77-4.09-1.7s-1.53-2.09-2.55-1.6c-1.02.49-2.3.58-2.47,2.11-.17,1.53-.17,5.7-1.28,5.7s-2.47.09-2.21-1.96c.26-2.04,1.53-3.4,1.11-4.68s-2.13-1.39-4-1.29c-1.87.1-6.38,1.2-6.89,2.31-.51,1.11.34,2.21,1.53,3.91,1.19,1.7-.17,3.83.43,4.77.6.94,7.06,1.53,6.64,5.96-.43,4.43-2.04,8.6-4,7.4-1.96-1.19-3.15-2.3-3.15-4.85s-1.79-2.55-2.55-1.62c-.77.94-.68,1.62-1.79,2.21-1.11.6-2.47-.68-2.72-2.81s-.43-3.15-2.47-3.57c-2.04-.43-2.04-1.79-.6-2.55,1.45-.77,3.49-2.13,1.11-4.09-2.38-1.96-5.7-.85-7.4-.09-1.7.77-5.36,2.81-4.43,4.09s3.57.51,4,1.7c.43,1.19.85,2.72-.43,3.15-1.28.43-3.32-.51-4.94-1.87-1.62-1.36-4.17-2.98-5.02-1.36-.85,1.62-1.7,3.83-1.62,5.79.09,1.96.6,4.34-6.21,2.13-6.81-2.21-12.38-4.97-14.38-5.62-3.15-1.02-5.7-.09-6.64,1.45s-1.53,5.28-3.32,4.09c-1.79-1.19-1.7-3.66-2.89-4.17-1.19-.51-4.94-2.47-7.49-3.23-2.55-.77-7.35-5.96-9.19-7.83-.8-.81-11.74-7.66-14.47-7.4-2.72.26-9.53.07-12.68,0-3.15-.08-5.45-.76-6.04-2.8-.6-2.04,0-3.57.09-4.94.09-1.36-1.28-3.06-2.72-3.32-1.45-.26-5.28,0-5.11-2.72.17-2.72.6-5.02,1.53-5.87.94-.85-16.77.51-19.32,1.02-2.55.51-14.13,6.47-15.15,7.49s-5.96,3.91-6.55,3.83c-.6-.09-3.39.2-3.13-.82.26-1.02-.19-1.8-1.73-1.21-1.53.6-2.51,2.61-2.76,3.97-.26,1.36-.21,1.21-1.32,2.31s-3.4,1.87-5.28,1.7c-1.87-.17-4.92-.28-7.05,1.34-2.13,1.62-23.25,11.77-24.36,14.24-1.11,2.47-.94,4.6-1.62,5.36-.68.77-3.23,3.66-5.11,4.6-1.87.94-5.53,2.47-7.91,3.32-2.38.85-10.55,4.87-10.55,4.87,3.23-.51,10.21-3.46,13.11-2.95,2.89.51,7.15.96,9.02-1.3,1.87-2.26,7.32-5.62,8.51-6.47,1.19-.85,4.09-2.72,3.74,0-.34,2.72-1.02,3.4,2.72,2.72,3.74-.68,6.3-1.36,9.02-2.21,2.72-.85,1.53.34,1.7,2.55.17,2.21-.34,3.23,1.36,3.91,1.7.68,5.62.85,5.45,2.89s-1.87,6.81-1.53,8.34c.34,1.53,1.2,6.47,1.54,8.34.34,1.87-1.02,4.6,0,5.96,1.02,1.36,5.1,2.55,2.38,5.79-2.72,3.23-6.98,2.38-7.49,4.09-.51,1.7,0,4.09-.17,8.68-.17,4.6-1.27,5.55-5.96,9.36-2.72,2.21,1.02,12.26,2.04,15.15,1.02,2.89,1.7,4.77,2.04,6.64.34,1.87,1.02,5.11-1.7,5.79s-4.09-.68-4.94-1.53-3.23-1.16-4.94,1.72c-1.7,2.88-2.55,6.79-5.28,9.86-2.72,3.06-11.23,11.23-13.28,14.13-2.04,2.89-2.72,3.74-3.06,5.28-.34,1.53.51,5.11-1.19,6.64s-5.11,3.23-5.62,5.28-1.19,11.06-.51,25.53c.18,3.93.85,10.55-1.53,14.47-2.38,3.91-16.77,28.09-9.11,41.87,6.78,12.21,44.08,14.81,57.64,29.59-1.42,1.23-2.82,2.5-4.5,3.31-7.55,3.62-16.9-2.47-24.77.38-2.86,50.57,11.91,63.71,40.24,108.24-13.21-52.74-33.81-78.81-13.12-77.02-9.35,15.94,2,27.89,8.02,37.26,6.94,10.83,10.72,28.74,17.36,39.75,5.17,8.58,15.07,17.54,15.73,27.53,2.65,39.96,11.35,28.49,45.16,49.95,4.06,2.58,9.41,4.92,13.41,2.25,2.89-1.93,3.87-5.81,6.56-8,4.11-3.34,10.52-1.34,14.3,2.36,3.78,3.71,5.97,8.73,9.33,12.82,9.3,11.32,26.2,14.09,35.44,25.45,2.6,3.19,4.49,6.96,7.37,9.89s7.31,4.96,11.13,3.44c3.83-1.52,5.23-7.74,1.65-9.77,12.76,5.45,24.68,14.1,21.09,28.54-3.57,14.38-16.61,28.78-10.2,44.46,1.49,3.65,2.99,7.3,4.48,10.96.59,1.44,1.2,2.91,2.19,4.11,1.06,1.29,2.53,2.22,3.47,3.6,1.56,2.29,1.38,5.28,1.89,8,.86,4.48,3.87,8.5,7.94,10.57,2.23,1.14,4.75,1.29,7.16,1.97,2.41.68,4.89,1.72,6.35,3.75.85,1.19,1.37,2.73,2.64,3.45,2.26,1.29,5.71-.67,7.47,1.25,1.08,1.18.78,3.23,1.94,4.34,1.1,1.04,2.93.72,4.21,1.53,1.06.67,1.5,1.97,1.87,3.16,1.65,5.3,3.31,10.84,2.47,16.33-.49,3.17-.55,6.3-2.19,9.07-1.72,2.9-4.36,5.24-5.65,8.35-1.25,3.03-1.08,6.43-1.03,9.72.06,4.19-.18,8.53-2.1,12.26-1.43,2.78-3.71,5.02-5.55,7.56-5.18,7.17-6.6,16.37-6.83,25.21-.08,2.93-.32,6.39-2.82,7.91-1.15.7-2.74.95-3.32,2.17-.3.64-.23,1.38-.39,2.07-.68,2.86-4.91,3.59-5.77,6.4-.41,1.34-.11,3.18-1.36,3.8-.75.37-1.69.05-2.45.4-1.06.5-1.11,2.05-.56,3.08.55,1.03,1.5,1.8,2.09,2.81.59,1.01.66,2.53-.32,3.15-.38.24-.86.3-1.28.46-1.75.65-2.33,3.27-1.01,4.59-2.16,2.17-3.83,4.68-5.14,7.45-.68,1.45-.99,3.63.48,4.28,1.16.51,2.46-.49,3-1.64.54-1.14.67-2.46,1.34-3.54.66-1.07,2.25-1.78,3.18-.92.6.55.63,1.54.3,2.28s-.96,1.32-1.56,1.88c-2.77,2.59-5.54,5.78-5.51,9.57,0,1.16.29,2.32.17,3.48s-.79,2.38-1.93,2.63c-.97.21-1.92-.35-2.77-.85-.93-.55-1.96-1.08-3.04-1-1.08.08-2.16,1.03-1.98,2.1.28,1.65,2.8,1.72,3.75,3.1.9,1.32-.08,3.17-1.4,4.09-1.31.92-2.94,1.37-4.1,2.48-.22.21-.43.46-.51.76-.3,1.15,1.27,1.73,2.25,2.39,1.26.83,1.83,2.43,1.87,3.93.04,1.51-.36,2.99-.65,4.47-.11.55-.2,1.14.04,1.66.38.84,1.45,1.1,2.37,1.07.92-.03,1.87-.26,2.74.02.89.28,1.6,1.05,2.52,1.21.58.1,1.18-.04,1.75.09.99.23,1.61,1.19,2.34,1.9,1.9,1.85,4.8,2.08,7.45,2.19,2.83.11,5.66.19,8.49.23.6,0,1.22.01,1.78-.2,1.32-.51,1.88-2.04,2.29-3.4.11-.36.21-.78-.01-1.08-.13-.17-.33-.27-.53-.34-1.55-.6-3.3-.66-4.77-1.43-1.48-.77-2.59-2.73-1.62-4.09.32-.46.84-.78,1.04-1.3.2-.52-.27-1.3-.76-1.04,0-1.98,2.24-3.1,4.16-3.57,1.92-.47,4.2-1.02,4.9-2.87,2.53-.63,4.78-1.59,7.16-2.66,1.41-.63,2.84-1.39,3.71-2.67.87-1.28.95-3.21-.21-4.23-.57-.5-1.33-.71-1.95-1.12s-1.13-1.23-.79-1.9c2.49-2.49,5.99-3.92,9.51-3.88,1.23.01,2.73.07,3.38-.97.43-.69.27-1.58.35-2.4.15-1.55,1.32-2.95,2.81-3.37,1.77-.5,3.4-.2,5.09-.94,1.69-.74,3.12-2.35,3.11-4.19-1.21-.05-2.46-.11-3.51-.71-1.05-.6-1.79-1.91-1.34-3.03.54-1.33,2.29-1.59,3.73-1.64,2.41-.09,4.88-.17,7.18.55,1,.31,2.03.78,3.05.55,1.46-.32,2.26-1.92,2.53-3.4s.24-3.05.95-4.37c.77-1.42,2.31-2.3,3.89-2.67,1.58-.37,3.22-.3,4.84-.27,2.76.05,5.53-.02,8.28-.22,2.9-.21,5.83-.56,8.54-1.61,2.28-.88,4.34-2.23,6.38-3.58,1.51-1,3.05-2.03,4.17-3.47,1.11-1.43,1.74-3.37,1.19-5.1-1.02-.23-1.68-1.98-.99-2.76.44-.5,1.18-.68,1.55-1.24.66-.98-.29-2.27-1.31-2.88-1.01-.61-2.28-1.12-2.62-2.25-.36-1.21.67-2.51,1.9-2.8,1.23-.29,2.52.18,3.59.85,1.07.66,2.02,1.52,3.13,2.13,3.12,1.71,6.97,1.17,10.42.29,3.81-.98,7.59-2.34,10.78-4.66,6.5-4.73,9.73-12.74,15.35-18.48,6.21-6.35,14.63-10.39,21.74-15.71,4.51-3.37,9.18-6.92,11.75-11.93,2.29-4.46,2.85-9.93,6.39-13.49,3.7-3.72,9.49-4.17,14.22-6.44,2.41-1.16,4.64-2.83,7.27-3.34,1.75-.34,3.56-.13,5.34-.16,8.74-.17,16.9-6.98,18.63-15.54.23-1.16,1.34-1.8,2.2-2.62,2.78-2.65,5.69-5.18,8.14-8.13.59-.71,1.15-1.45,1.43-2.33.66-2.08-.43-4.44.34-6.47.35-.91,1.04-1.65,1.8-2.27,1.31-1.06,2.86-1.8,4.18-2.85,2.35-1.87,3.9-4.72,4.18-7.71.35-3.63.31-7.53.62-11.17.09-1.1.2-2.23.65-3.24.99-2.22,3.49-3.56,4.24-5.88.27-.84.28-1.73.29-2.61l.06-6.11c5.03-4.79.93-17.7-4.4-22.14Z"/>
        <path class="cls-2" d="M881.9,564.67c-6.51-4.96-12.06-11.13-18.87-15.66-6.81-4.53-15.54-7.31-23.2-4.45,4.36.7,1.57,5.72,4.01,9.41,3.34,5.05,11.28,2.66,16.91,4.9,4.07,1.62,6.61,5.56,9.36,8.97,3.59,4.45,7.89,8.25,12.26,11.94,3.85,3.26,7.95,6.53,12.86,7.71,4.91,1.17,10.84-.4,13.17-4.88,1.33-2.55-.99-11-3.83-10.52-8.06,1.36-16.16-2.46-22.66-7.42Z"/>
        <path class="cls-2" d="M917.46,591c-.74,3.78,3.78,6.24,7.45,7.39,3.31,1.04,6.62,2.07,9.93,3.11.73.23,1.49.46,2.24.34,1.83-.3,2.68-2.39,3.08-4.2.92-4.15,1.2-8.45.82-12.68-7.77-1.99-16.65,1.7-20.72,8.62l-2.81-2.57Z"/>
        <path class="cls-2" d="M927.08,576.1c1.71-1.23,2.46-3.64,1.74-5.63-1.68-.04-3.35-.08-5.03-.13l-1.08-.17c-1.98,1.03-2.74,3.89-1.52,5.77,1.65,1.32,4.18,1.38,5.89.15Z"/>
        <path class="cls-2" d="M947.55,573.55c.24-3.33-4.47-6.09-6.73-3.64l-3.6,3.56c-1.38.56-1.66,2.59-.8,3.8s2.45,1.71,3.94,1.76c3.33.11,6.96-2.16,7.2-5.49Z"/>
        <path class="cls-2" d="M1278.43,537.5c-.04-28.23-2.06-58.96-11.08-85.72,4.02,12.64-5.05,25.27-12.69,36.11-7.64,10.84-14.26,26-6.23,36.55,1.54,2.02,3.58,3.78,4.33,6.2,1.48,4.77-2.69,9.45-7.06,11.86-4.37,2.42-9.51,3.98-12.49,7.99-6.15,8.29.95,19.48,3.41,29.51,6.02,24.57-4.62,27.48-.11,52.38,9.26,6.19,8.25,28.62,18.6,24.47,11.13-4.46,13.28-18.48,14.49-30.41,1.2-11.93,3.24-21.46,5.06-33.31,1.03-6.71-.26-15.84,1.09-22.49,2.22-10.88,2.69-22.04,2.67-33.15Z"/>
      </g>
    </g>
  </g>
  <path class="cls-1" d="M0,353.81c0-2.21,1.79-4,4-4h1689.36c2.21,0,4,1.79,4,4v65.02c0,2.21-1.79,4-4,4H4c-2.21,0-4-1.79-4-4"/>
  <path class="cls-1" d="M.4,657.49c0-2.21,1.79-4,4-4h1689.36c2.21,0,4,1.79,4,4v65.02c0,2.21-1.79,4-4,4H4.4c-2.21,0-4-1.79-4-4"/>
  <rect class="cls-1" x="88.28" y="435.79" width="1523.83" height="206.57" rx="4" ry="4"/>
  <g id="MackKirk">
    <polyline class="cls-2" points="225.91 454.57 277.74 454.57 303.53 546.53 330.09 454.57 381.4 454.57 381.4 624.87 339.79 624.87 340.81 548.27 319.11 624.87 287.7 624.87 266.79 547.34 266 624.87 225.91 624.87"/>
    <path class="cls-2" d="M492.21,454.57h-43.57l-56.85,170.3h45.28l11.36-40.31,42.76-.28,12.94,40.6h44.6l-56.51-170.3ZM460.97,544.16l9.45-30,9.32,30h-18.77Z"/>
    <path class="cls-2" d="M649.49,520.17l36.77-23.73s-17.07-45.39-70.81-44.26c-29.14.62-49.72,21.17-54.27,25.93-17.06,17.84-19.47,37.22-20.97,46.59-4.18,26.12,3.69,46.14,5.45,50.38,2.92,7.07,9.13,21.61,24.51,33.7,17.02,13.38,32.15,15.9,38.47,16.39,23.63,1.87,35.78-2.78,42.34-6.2,26.76-13.94,33.91-35.05,33.91-35.05l-36.43-24.85c-.34,1.7-9.47,14.43-23.83,18.38-15.03,4.13-34.52-3.92-41.19-25.19-5.45-17.36,1.7-34.38,11.91-44.26,3.82-3.7,20.48-11.86,35.8-4.33,9.12,4.48,18.33,16.48,18.33,16.48Z"/>
    <polygon class="cls-2" points="942.87 454.2 986.44 454.2 986.44 513.79 1038.53 454.2 1094.68 454.2 1025.93 528.79 1094.68 624.5 1042.27 625.24 994.61 556.81 986.44 563.96 986.78 624.5 942.87 624.5 942.87 454.2"/>
    <polygon class="cls-2" points="697.73 454.2 741.31 454.2 741.31 513.79 793.39 454.2 849.55 454.2 780.8 528.79 849.55 624.5 797.14 625.24 749.48 556.81 741.31 563.96 741.65 624.5 697.73 624.5 697.73 454.2"/>
    <rect class="cls-2" x="1105.78" y="454.2" width="44.43" height="171.03"/>
    <polygon class="cls-2" points="1325.29 454.2 1368.87 454.2 1368.87 513.79 1420.95 454.2 1477.11 454.2 1408.36 528.79 1477.11 624.5 1424.7 625.24 1377.04 556.81 1368.87 563.96 1369.21 624.5 1325.29 624.5 1325.29 454.2"/>
    <path class="cls-2" d="M1274.03,557.26s17.04-8.62,23.92-26.48c8-20.76,2.36-45.49-9.37-59.05-13.02-15.06-26.55-16.25-36.51-17.53-9.96-1.28-86.3,0-86.3,0v171.03h43.15v-58.27h21.7l32.17,58.27h50.3l-39.06-67.97ZM1256.16,517.69c-3.57,9-18.89,8.17-18.89,8.17h-28.09v-27.83h29.11c15.06,0,18.57,5.81,18.39,10.28,0,0,.48,6.86-.52,9.38Z"/>
  </g>
  <g id="Since1908">
    <path class="cls-2" d="M584.59,718.82c15.41,0,10.56,0,13.47,0,7.63,0,18.02-5.81,18.02-14.92s0-4.84,0-7.95-4.07-9.79-11.53-11.05c-7.46-1.26-9.8-1.52-15.61-2.88-1.23-.29-8.03-1.27-8.03-4.18,0-1.53.07-4.31.07-5.45,0-2.45,1.6-3.57,4.19-3.57h9.59c1.77,0,5.14,1.65,5.14,4.55v3.68l15.36-.24s-.05.63-.05-6.06-10.46-11.34-16.67-11.34h-16.57c-7.97,0-17.05,6.39-17.05,11.92v7.27c0,2.26.87,6.21,8.65,9.85,3.57,1.67,9.63,3.13,16.45,4.01,5.86.76,8.14,1.74,8.72,2.71.58.97.19,8.04.19,8.04,0,0,.29,3.39-3.49,4.55h-11.14s-5.04-.39-5.04-4.07,0-3.06,0-3.06h-16.08v6.32c0,2.83,5.81,11.86,21.41,11.86Z"/>
    <rect class="cls-2" x="634.53" y="660.43" width="13.5" height="57.39"/>
    <polygon class="cls-2" points="708.77 717.82 684.7 680.91 684.7 717.82 670.86 717.82 670.86 660.43 684.44 660.43 708.21 696 708.21 660.43 721.18 660.43 721.18 717.82 708.77 717.82"/>
    <path class="cls-2" d="M760.16,717.82c-10.65,0-17.8-5.05-17.8-9.77v-37.4c0-2.97,4.47-10.23,12.76-10.23h18.02c8.89,0,16.25,6.13,16.25,9.26v6.36h-13.51c-.01-.93-.03-2.35-.03-3.53,0-2.63-3.09-4.75-5.65-4.75-1.29,0-2.72.02-4.12.03-1.34.02-2.65.03-3.79.03-2.73,0-5.84,2.74-5.84,5.14v31.78c0,2.65,2.92,5.46,5.69,5.46,1.02,0,2.48.02,4.01.03,1.67.02,3.4.04,4.72.04,3.11,0,5.03-2.3,5.03-4.43v-3.78h13.5v5.78c0,1.24-2.92,9.96-14.7,9.96h-14.53Z"/>
    <polygon class="cls-2" points="810.95 717.82 810.95 660.43 853.43 660.43 853.43 667.99 824.36 667.99 824.36 685.39 850.23 685.39 850.23 692.69 823.78 692.69 823.78 710.39 853.43 710.39 853.43 717.82 810.95 717.82"/>
    <polygon class="cls-2" points="906.02 666.01 906.02 675.89 920.7 670.22 920.19 718.82 936.83 718.82 936.83 659.43 920.85 659.43 906.02 666.01"/>
    <path class="cls-2" d="M993.58,660.5h-14.15c-8.04,0-13.47,5.04-14.34,10.66,0,0,.29,8.72.29,13.76s5.72,10.37,13.08,10.37c4.75,0,8.04-.58,8.04-.58l-17.73,24.13h18.8s22.28-31,22.28-33.33c0-3.49.1-9.01.1-13.66,0-8.62-13.47-11.34-16.37-11.34ZM993.91,683.31c0,1.5-1.09,3.25-3.25,3.25h-5.72c-2.74,0-3.68-1.94-3.68-2.91v-11.43c0-1.11,1.16-2.62,2.69-2.62h6.61c2.29,0,3.34,1.26,3.34,2.62v11.09Z"/>
    <path class="cls-2" d="M1042.12,719.08c-8.79,0-14.7-5.65-14.7-10.92v-37.01c0-6.11,8.55-10.53,14.31-10.53h15.21c8.97,0,14.7,6.91,14.7,10.53v37.3c0,5.66-6.78,10.63-14.5,10.63h-15.02ZM1045.03,668.6c-3.52,0-3.52,3.3-3.52,4.39v34.11c0,1.69.8,3.71,4.58,3.71h6.69c2.67,0,3.91-1.4,3.91-4.39v-33.43c0-3.82-2.36-4.39-3.76-4.39h-7.9Z"/>
    <path class="cls-2" d="M1126.41,688.37c2.03,0,6.83-3.68,6.83-6.01v-11.14c0-3.63-8.79-10.72-15.55-10.72h-13.95c-8.24,0-15.12,7.38-15.12,11.31v10.71c0,4.36,7.32,5.96,7.32,5.96-2.47,0-7.32,2.62-7.32,7.12v12.98c0,5.16,11.77,10.46,14.82,10.46h15.99c6.1,0,13.81-7.65,13.81-11.05v-12.69c0-5.53-8.87-6.93-6.83-6.93ZM1117.14,707.58c0,1.53-1.25,3.2-2.92,3.2h-6.55c-2.03,0-3.38-1.24-3.38-3.2v-12.72c0-1.45,1.35-3.12,3.38-3.12h6.55c1.31,0,2.92.8,2.92,3.12v12.72ZM1117.14,680.69c0,1.53-1.38,3.49-3.05,3.49h-6.55c-2.03,0-3.26-1.09-3.26-3.05v-8.07c0-1.45,1.38-3.27,3.42-3.27h5.96c1.31,0,3.49.94,3.49,3.27v7.63Z"/>
  </g>
</svg>